<svg width="184" height="186" viewBox="0 0 184 186" fill="none" xmlns="http://www.w3.org/2000/svg">
<circle cx="92" cy="94" r="81" fill="#001F3D"/>
<path d="M95.5 82.117C96.6703 82.117 97.8144 82.4862 98.7875 83.178C99.7606 83.8698 100.519 84.853 100.967 86.0033C101.415 87.1537 101.532 88.4195 101.304 89.6407C101.075 90.8619 100.512 91.9837 99.6842 92.8641C98.8566 93.7446 97.8022 94.3442 96.6544 94.5871C95.5065 94.83 94.3168 94.7053 93.2355 94.2288C92.1543 93.7523 91.2301 92.9454 90.5799 91.9101C89.9297 90.8748 89.5827 89.6577 89.5827 88.4125C89.5827 86.7429 90.2061 85.1416 91.3158 83.9609C92.4255 82.7803 93.9306 82.117 95.5 82.117ZM102.98 105.82V153.45C102.977 154.373 102.631 155.257 102.018 155.909C101.404 156.561 100.573 156.929 99.7062 156.933C98.8385 156.931 98.0068 156.564 97.3932 155.911C96.7797 155.258 96.4343 154.373 96.4328 153.45V125.443H94.653V153.45C94.65 154.373 94.3042 155.257 93.6909 155.909C93.0777 156.561 92.2468 156.929 91.3796 156.933C90.5124 156.929 89.6815 156.561 89.0683 155.909C88.455 155.257 88.1092 154.373 88.1062 153.45V105.82H86.9616V123.324C86.9616 126.813 82 126.813 82 123.324V104.486C82 101.442 82.9671 99.2744 84.7298 97.8619C87.7628 95.4265 103.231 95.4265 106.264 97.8619C108.027 99.2744 109.006 101.424 109 104.486V123.324C109 126.813 104.033 126.813 104.033 123.324V105.82H102.98Z" fill="white"/>
<g clip-path="url(#clip0_135_771)">
<path d="M83.8477 30.783C83.4828 30.5755 83.3598 30.1157 83.5689 29.7536C83.778 29.3914 84.2412 29.2694 84.6061 29.4769L86.2991 30.4453C86.6639 30.6528 86.7869 31.1126 86.5778 31.4748C86.3688 31.8369 85.9056 31.959 85.5407 31.7515L83.8477 30.783ZM99.5114 41.0085L99.8721 44.6095H106.636L105.972 41.0085H99.5114ZM107.739 41.0085L108.403 44.6095H113.699L112.699 41.0085H107.739ZM114.179 46.3429H108.723L109.235 49.1302H114.954L114.179 46.3429ZM115.437 50.8717H109.559L110.071 53.659H116.208L115.437 50.8717ZM116.692 55.3924H110.391L111.35 60.5967H118.135L116.692 55.3924ZM109.579 60.5967L108.62 55.3924H100.946L101.467 60.5967H109.579ZM99.7122 60.5967L99.1916 55.3924H89.7057L88.9883 60.5967H99.7122ZM87.2337 60.5967L87.9511 55.3924H80.7035L79.4859 60.5967H87.2337ZM77.6986 60.5967L78.9161 55.3924H73.3082L71.8652 60.5967H77.6986ZM73.7919 53.659H79.322L79.9738 50.8717H74.5626L73.7919 53.659ZM75.0463 49.1302H80.3755L81.0273 46.3429H75.8211L75.0463 49.1302ZM76.3007 44.6095H81.4331L82.2776 41.0085H77.301L76.3007 44.6095ZM84.0649 41.0085L83.2205 44.6095H89.431L89.927 41.0085H84.0649ZM91.6775 41.0085C91.6775 41.041 91.6734 41.0695 91.6693 41.1021L91.1855 44.6095H98.1217L97.7609 41.0085H91.6775ZM118.52 62.3301H96.8427V70.342H103.521V74H86.4795V70.342H93.1573V62.3301H71.4799C71.3528 62.3301 71.2175 62.3097 71.0822 62.2731C70.8158 62.1999 70.5657 62.0575 70.3812 61.8662C70.1476 61.6261 70 61.3169 70 60.967C70 60.8652 70.0164 60.7554 70.0492 60.6414L75.6366 40.5039C75.7227 40.1987 75.8662 39.9017 76.0917 39.6779C76.3417 39.4297 76.6656 39.2751 77.0714 39.2751H87.9429C87.3198 38.2537 86.9591 37.0575 86.9591 35.7757C86.9591 33.9121 87.7216 32.2235 88.9514 30.9987C90.1812 29.778 91.8824 29.0212 93.764 29.0212C95.6457 29.0212 97.3428 29.778 98.5767 30.9987C99.8065 32.2194 100.569 33.908 100.569 35.7757C100.569 37.0575 100.208 38.2537 99.5851 39.2751H112.933C113.302 39.2751 113.601 39.4053 113.839 39.6169C113.863 39.6372 113.888 39.6576 113.908 39.6779C114.134 39.9017 114.277 40.1987 114.363 40.5039L119.955 60.6455C119.988 60.7635 120.004 60.8693 120.004 60.967C120.004 61.3169 119.857 61.6261 119.623 61.8621C119.438 62.0534 119.184 62.1958 118.922 62.269C118.782 62.3097 118.647 62.3301 118.52 62.3301ZM100.04 46.3429L100.319 49.1302H107.468L106.956 46.3429H100.04ZM82.8187 46.3429L82.1669 49.1302H88.8079L89.1891 46.3429H82.8187ZM90.9478 46.3429L90.5665 49.1302H98.5726L98.2938 46.3429H90.9478ZM100.495 50.8717L100.774 53.659H108.305L107.792 50.8717H100.495ZM81.7611 50.8717L81.1093 53.659H88.1889L88.5701 50.8717H81.7611ZM90.3247 50.8717L89.9434 53.659H99.0235L98.7448 50.8717H90.3247ZM87.6888 26.535C87.4797 26.1729 87.6027 25.7131 87.9675 25.5055C88.3324 25.298 88.7956 25.4201 89.0047 25.7822L89.9803 27.4587C90.1894 27.8208 90.0664 28.2806 89.7057 28.4881C89.3408 28.6956 88.8776 28.5736 88.6685 28.2114L87.6888 26.535ZM93.1532 24.7568C93.1532 24.3377 93.4935 24 93.9157 24C94.338 24 94.6782 24.3377 94.6782 24.7568V26.6937C94.6782 27.1128 94.338 27.4505 93.9157 27.4505C93.4935 27.4505 93.1532 27.1128 93.1532 26.6937V24.7568ZM98.7899 25.9368C98.9989 25.5747 99.4622 25.4526 99.827 25.6602C100.192 25.8677 100.315 26.3275 100.106 26.6896L99.1301 28.3701C98.921 28.7323 98.4578 28.8543 98.093 28.6468C97.7281 28.4393 97.6051 27.9795 97.8142 27.6174L98.7899 25.9368ZM103.07 29.7495C103.434 29.542 103.898 29.6641 104.107 30.0262C104.316 30.3883 104.193 30.8481 103.828 31.0557L102.139 32.0241C101.774 32.2316 101.311 32.1095 101.102 31.7515C100.893 31.3893 101.016 30.9295 101.381 30.722L103.07 29.7495ZM104.861 35.1735C105.283 35.1735 105.624 35.5112 105.624 35.9303C105.624 36.3494 105.283 36.6872 104.861 36.6872H102.91C102.487 36.6872 102.147 36.3494 102.147 35.9303C102.147 35.5112 102.487 35.1735 102.91 35.1735H104.861ZM82.6589 36.3779C82.2366 36.3779 81.8964 36.0402 81.8964 35.6211C81.8964 35.202 82.2366 34.8643 82.6589 34.8643H84.6102C85.0324 34.8643 85.3726 35.202 85.3726 35.6211C85.3726 36.0402 85.0324 36.3779 84.6102 36.3779H82.6589Z" fill="white"/>
</g>
<circle cx="92" cy="94" r="88.5" stroke="#646060" stroke-width="5"/>
<defs>
<clipPath id="clip0_135_771">
<rect width="50" height="50" fill="white" transform="translate(70 24)"/>
</clipPath>
</defs>
</svg>
