<svg width="186" height="184" viewBox="0 0 186 184" fill="none" xmlns="http://www.w3.org/2000/svg">
<circle cx="93" cy="92" r="78.5" fill="#001F3D" stroke="#001F3D" stroke-width="5"/>
<g clip-path="url(#clip0_108_439)">
<path d="M106 128C106.433 128 106.857 128.123 107.218 128.355C107.578 128.586 107.859 128.914 108.025 129.299C108.191 129.683 108.234 130.106 108.149 130.514C108.065 130.922 107.856 131.297 107.55 131.591C107.243 131.885 106.853 132.086 106.428 132.167C106.002 132.248 105.562 132.206 105.161 132.047C104.761 131.888 104.419 131.618 104.178 131.272C103.937 130.926 103.808 130.52 103.808 130.104C103.808 129.546 104.039 129.011 104.45 128.616C104.861 128.222 105.419 128 106 128ZM108.77 135.92V151.836C108.769 152.145 108.641 152.44 108.414 152.658C108.187 152.876 107.879 152.999 107.558 153C107.236 152.999 106.928 152.877 106.701 152.659C106.474 152.44 106.346 152.145 106.345 151.836V142.478H105.686V151.836C105.685 152.145 105.557 152.44 105.33 152.658C105.103 152.876 104.795 152.999 104.474 153C104.153 152.999 103.845 152.876 103.618 152.658C103.391 152.44 103.263 152.145 103.262 151.836V135.92H102.838V141.77C102.838 142.935 101 142.935 101 141.77V135.475C101 134.458 101.358 133.733 102.011 133.261C103.134 132.447 108.864 132.447 109.987 133.261C110.64 133.733 111.002 134.451 111 135.475V141.77C111 142.935 109.16 142.935 109.16 141.77V135.92H108.77Z" fill="white"/>
</g>
<g clip-path="url(#clip1_108_439)">
<path d="M67.5 22C69.1038 22 70.6716 22.459 72.0051 23.3189C73.3386 24.1788 74.3779 25.401 74.9917 26.8309C75.6054 28.2609 75.766 29.8344 75.4531 31.3524C75.1402 32.8704 74.3679 34.2648 73.2339 35.3593C72.0998 36.4537 70.655 37.199 69.082 37.501C67.509 37.803 65.8786 37.648 64.3968 37.0557C62.9151 36.4634 61.6487 35.4603 60.7577 34.1734C59.8666 32.8865 59.3911 31.3735 59.3911 29.8257C59.3911 27.7502 60.2454 25.7597 61.7661 24.2921C63.2868 22.8245 65.3494 22 67.5 22ZM77.7499 51.4636V110.671C77.7458 111.818 77.2718 112.917 76.4315 113.728C75.5911 114.539 74.4525 114.996 73.2641 115C72.075 114.998 70.9352 114.541 70.0944 113.73C69.2536 112.918 68.7804 111.818 68.7783 110.671V75.8564H66.3393V110.671C66.3352 111.818 65.8613 112.917 65.0209 113.728C64.1806 114.539 63.042 114.996 61.8535 115C60.6651 114.996 59.5265 114.539 58.6862 113.728C57.8458 112.917 57.3719 111.818 57.3677 110.671V51.4636H55.7993V73.2227C55.7993 77.5593 49 77.5593 49 73.2227V49.8062C49 46.022 50.3253 43.3276 52.7408 41.5718C56.8972 38.5444 78.095 38.5444 82.2514 41.5718C84.6668 43.3276 86.0078 45.9993 86 49.8062V73.2227C86 77.5593 79.1929 77.5593 79.1929 73.2227V51.4636H77.7499Z" fill="white"/>
</g>
<g clip-path="url(#clip2_108_439)">
<path d="M93 128C93.4335 128 93.8572 128.123 94.2176 128.355C94.578 128.586 94.8589 128.914 95.0248 129.299C95.1907 129.683 95.2341 130.106 95.1495 130.514C95.0649 130.922 94.8562 131.297 94.5497 131.591C94.2432 131.885 93.8527 132.086 93.4276 132.167C93.0024 132.248 92.5618 132.206 92.1613 132.047C91.7608 131.888 91.4186 131.618 91.1777 131.272C90.9369 130.926 90.8084 130.52 90.8084 130.104C90.8084 129.546 91.0393 129.011 91.4503 128.616C91.8613 128.222 92.4187 128 93 128ZM95.7702 135.92V151.836C95.7691 152.145 95.641 152.44 95.4139 152.658C95.1868 152.876 94.8791 152.999 94.5579 153C94.2365 152.999 93.9284 152.877 93.7012 152.659C93.474 152.44 93.346 152.145 93.3455 151.836V142.478H92.6863V151.836C92.6852 152.145 92.5571 152.44 92.33 152.658C92.1029 152.876 91.7951 152.999 91.4739 153C91.1527 152.999 90.845 152.876 90.6179 152.658C90.3908 152.44 90.2627 152.145 90.2616 151.836V135.92H89.8376V141.77C89.8376 142.935 88 142.935 88 141.77V135.475C88 134.458 88.3582 133.733 89.011 133.261C90.1344 132.447 95.8635 132.447 96.9869 133.261C97.6397 133.733 98.0021 134.451 98 135.475V141.77C98 142.935 96.1602 142.935 96.1602 141.77V135.92H95.7702Z" fill="white"/>
</g>
<g clip-path="url(#clip3_108_439)">
<path d="M101 102C101.433 102 101.857 102.123 102.218 102.355C102.578 102.586 102.859 102.914 103.025 103.299C103.191 103.683 103.234 104.106 103.149 104.514C103.065 104.922 102.856 105.297 102.55 105.591C102.243 105.885 101.853 106.086 101.428 106.167C101.002 106.248 100.562 106.206 100.161 106.047C99.7608 105.888 99.4186 105.618 99.1777 105.272C98.9369 104.926 98.8084 104.52 98.8084 104.104C98.8084 103.546 99.0393 103.011 99.4503 102.616C99.8613 102.222 100.419 102 101 102ZM103.77 109.92V125.836C103.769 126.145 103.641 126.44 103.414 126.658C103.187 126.876 102.879 126.999 102.558 127C102.236 126.999 101.928 126.877 101.701 126.659C101.474 126.44 101.346 126.145 101.345 125.836V116.478H100.686V125.836C100.685 126.145 100.557 126.44 100.33 126.658C100.103 126.876 99.7951 126.999 99.4739 127C99.1527 126.999 98.845 126.876 98.6179 126.658C98.3908 126.44 98.2627 126.145 98.2616 125.836V109.92H97.8376V115.77C97.8376 116.935 96 116.935 96 115.77V109.475C96 108.458 96.3582 107.733 97.011 107.261C98.1344 106.447 103.864 106.447 104.987 107.261C105.64 107.733 106.002 108.451 106 109.475V115.77C106 116.935 104.16 116.935 104.16 115.77V109.92H103.77Z" fill="white"/>
</g>
<g clip-path="url(#clip4_108_439)">
<path d="M127 127C127.433 127 127.857 127.123 128.218 127.355C128.578 127.586 128.859 127.914 129.025 128.299C129.191 128.683 129.234 129.106 129.149 129.514C129.065 129.922 128.856 130.297 128.55 130.591C128.243 130.885 127.853 131.086 127.428 131.167C127.002 131.248 126.562 131.206 126.161 131.047C125.761 130.888 125.419 130.618 125.178 130.272C124.937 129.926 124.808 129.52 124.808 129.104C124.808 128.546 125.039 128.011 125.45 127.616C125.861 127.222 126.419 127 127 127ZM129.77 134.92V150.836C129.769 151.145 129.641 151.44 129.414 151.658C129.187 151.876 128.879 151.999 128.558 152C128.236 151.999 127.928 151.877 127.701 151.659C127.474 151.44 127.346 151.145 127.345 150.836V141.478H126.686V150.836C126.685 151.145 126.557 151.44 126.33 151.658C126.103 151.876 125.795 151.999 125.474 152C125.153 151.999 124.845 151.876 124.618 151.658C124.391 151.44 124.263 151.145 124.262 150.836V134.92H123.838V140.77C123.838 141.935 122 141.935 122 140.77V134.475C122 133.458 122.358 132.733 123.011 132.261C124.134 131.447 129.864 131.447 130.987 132.261C131.64 132.733 132.002 133.451 132 134.475V140.77C132 141.935 130.16 141.935 130.16 140.77V134.92H129.77Z" fill="white"/>
</g>
<g clip-path="url(#clip5_108_439)">
<path d="M133 107C133.433 107 133.857 107.123 134.218 107.355C134.578 107.586 134.859 107.914 135.025 108.299C135.191 108.683 135.234 109.106 135.149 109.514C135.065 109.922 134.856 110.297 134.55 110.591C134.243 110.885 133.853 111.086 133.428 111.167C133.002 111.248 132.562 111.206 132.161 111.047C131.761 110.888 131.419 110.618 131.178 110.272C130.937 109.926 130.808 109.52 130.808 109.104C130.808 108.546 131.039 108.011 131.45 107.616C131.861 107.222 132.419 107 133 107ZM135.77 114.92V130.836C135.769 131.145 135.641 131.44 135.414 131.658C135.187 131.876 134.879 131.999 134.558 132C134.236 131.999 133.928 131.877 133.701 131.659C133.474 131.44 133.346 131.145 133.345 130.836V121.478H132.686V130.836C132.685 131.145 132.557 131.44 132.33 131.658C132.103 131.876 131.795 131.999 131.474 132C131.153 131.999 130.845 131.876 130.618 131.658C130.391 131.44 130.263 131.145 130.262 130.836V114.92H129.838V120.77C129.838 121.935 128 121.935 128 120.77V114.475C128 113.458 128.358 112.733 129.011 112.261C130.134 111.447 135.864 111.447 136.987 112.261C137.64 112.733 138.002 113.451 138 114.475V120.77C138 121.935 136.16 121.935 136.16 120.77V114.92H135.77Z" fill="white"/>
</g>
<g clip-path="url(#clip6_108_439)">
<path fill-rule="evenodd" clip-rule="evenodd" d="M114.674 136.217L112.349 146.717H114.674V151.83C114.675 152.139 114.787 152.434 114.987 152.652C115.187 152.871 115.458 152.993 115.741 152.994C116.023 152.993 116.293 152.87 116.493 152.652C116.692 152.434 116.805 152.138 116.805 151.83V146.717H117.227V151.83C117.227 152.138 117.339 152.434 117.539 152.652C117.738 152.87 118.009 152.993 118.291 152.994C118.574 152.993 118.845 152.871 119.045 152.652C119.245 152.434 119.357 152.139 119.358 151.83V146.717H121.552L119.358 136.49V135.92H119.703H119.727L121.371 142.305C121.439 142.525 121.581 142.71 121.769 142.819C121.958 142.928 122.177 142.954 122.383 142.891C122.588 142.828 122.763 142.682 122.872 142.481C122.981 142.281 123.015 142.043 122.967 141.816L121.301 135.347C121.291 135.309 121.279 135.272 121.265 135.237C121.054 134.276 120.959 133.703 120.428 133.267C119.44 132.454 114.665 132.454 113.678 133.267C113.104 133.739 112.895 134.462 112.645 135.481H112.66L111.031 141.81C110.971 142.041 110.999 142.288 111.106 142.497C111.214 142.706 111.393 142.859 111.604 142.924C111.816 142.989 112.042 142.959 112.233 142.842C112.425 142.725 112.566 142.529 112.625 142.299L114.271 135.912H114.301H114.674V136.209V136.217ZM117.003 128C117.384 128 117.757 128.123 118.074 128.355C118.391 128.586 118.638 128.914 118.784 129.299C118.93 129.683 118.968 130.106 118.894 130.514C118.819 130.922 118.636 131.297 118.366 131.591C118.096 131.885 117.753 132.086 117.379 132.167C117.005 132.248 116.617 132.206 116.265 132.047C115.913 131.888 115.612 131.618 115.4 131.272C115.188 130.926 115.075 130.52 115.075 130.104C115.075 129.546 115.278 129.011 115.64 128.616C116.001 128.222 116.492 128 117.003 128Z" fill="white"/>
</g>
<g clip-path="url(#clip7_108_439)">
<path fill-rule="evenodd" clip-rule="evenodd" d="M110.674 116.217L108.349 126.717H110.674V131.83C110.675 132.139 110.787 132.434 110.987 132.652C111.187 132.871 111.458 132.993 111.741 132.994C112.023 132.993 112.293 132.87 112.493 132.652C112.692 132.434 112.805 132.138 112.805 131.83V126.717H113.227V131.83C113.227 132.138 113.339 132.434 113.539 132.652C113.738 132.87 114.009 132.993 114.291 132.994C114.574 132.993 114.845 132.871 115.045 132.652C115.245 132.434 115.357 132.139 115.358 131.83V126.717H117.552L115.358 116.49V115.92H115.703H115.727L117.371 122.305C117.439 122.525 117.581 122.71 117.769 122.819C117.958 122.928 118.177 122.954 118.383 122.891C118.588 122.828 118.763 122.682 118.872 122.481C118.981 122.281 119.015 122.043 118.967 121.816L117.301 115.347C117.291 115.309 117.279 115.272 117.265 115.237C117.054 114.276 116.959 113.703 116.428 113.267C115.44 112.454 110.665 112.454 109.678 113.267C109.104 113.739 108.895 114.462 108.645 115.481H108.66L107.031 121.81C106.971 122.041 106.999 122.288 107.106 122.497C107.214 122.706 107.393 122.859 107.604 122.924C107.816 122.989 108.042 122.959 108.233 122.842C108.425 122.725 108.566 122.529 108.625 122.299L110.271 115.912H110.301H110.674V116.209V116.217ZM113.003 108C113.384 108 113.757 108.123 114.074 108.355C114.391 108.586 114.638 108.914 114.784 109.299C114.93 109.683 114.968 110.106 114.894 110.514C114.819 110.922 114.636 111.297 114.366 111.591C114.096 111.885 113.753 112.086 113.379 112.167C113.005 112.248 112.617 112.206 112.265 112.047C111.913 111.888 111.612 111.618 111.4 111.272C111.188 110.926 111.075 110.52 111.075 110.104C111.075 109.546 111.278 109.011 111.64 108.616C112.001 108.222 112.492 108 113.003 108Z" fill="white"/>
</g>
<g clip-path="url(#clip8_108_439)">
<path fill-rule="evenodd" clip-rule="evenodd" d="M85.6741 116.217L83.349 126.717H85.6741V131.83C85.6746 132.139 85.7871 132.434 85.987 132.652C86.1869 132.871 86.4579 132.993 86.7406 132.994C87.0229 132.993 87.2934 132.87 87.4929 132.652C87.6924 132.434 87.8047 132.138 87.8052 131.83V126.717H88.2266V131.83C88.2271 132.138 88.3393 132.434 88.5388 132.652C88.7383 132.87 89.0088 132.993 89.2912 132.994C89.5739 132.993 89.8449 132.871 90.0448 132.652C90.2447 132.434 90.3572 132.139 90.3577 131.83V126.717H92.5523L90.3577 116.49V115.92H90.7027H90.7269L92.3714 122.305C92.4386 122.525 92.5812 122.71 92.7695 122.819C92.9578 122.928 93.1775 122.954 93.3828 122.891C93.5882 122.828 93.7635 122.682 93.8723 122.481C93.9812 122.281 94.0152 122.043 93.9674 121.816L92.3005 115.347C92.291 115.309 92.2792 115.272 92.2651 115.237C92.0544 114.276 91.9593 113.703 91.4279 113.267C90.4398 112.454 85.6647 112.454 84.6784 113.267C84.1041 113.739 83.8953 114.462 83.6455 115.481H83.6604L82.0308 121.81C81.9715 122.041 81.9985 122.288 82.1061 122.497C82.2136 122.706 82.3927 122.859 82.6041 122.924C82.8155 122.989 83.0419 122.959 83.2333 122.842C83.4247 122.725 83.5656 122.529 83.625 122.299L85.2713 115.912H85.3012H85.6741V116.209V116.217ZM88.0028 108C88.3841 108 88.7569 108.123 89.0739 108.355C89.391 108.586 89.6381 108.914 89.784 109.299C89.9299 109.683 89.9681 110.106 89.8937 110.514C89.8193 110.922 89.6357 111.297 89.3661 111.591C89.0965 111.885 88.7529 112.086 88.379 112.167C88.005 112.248 87.6173 112.206 87.2651 112.047C86.9128 111.888 86.6117 111.618 86.3998 111.272C86.188 110.926 86.0749 110.52 86.0749 110.104C86.0749 109.546 86.2781 109.011 86.6396 108.616C87.0012 108.222 87.4915 108 88.0028 108Z" fill="white"/>
</g>
<g clip-path="url(#clip9_108_439)">
<path fill-rule="evenodd" clip-rule="evenodd" d="M119.674 100.217L117.349 110.717H119.674V115.83C119.675 116.139 119.787 116.434 119.987 116.652C120.187 116.871 120.458 116.993 120.741 116.994C121.023 116.993 121.293 116.87 121.493 116.652C121.692 116.434 121.805 116.138 121.805 115.83V110.717H122.227V115.83C122.227 116.138 122.339 116.434 122.539 116.652C122.738 116.87 123.009 116.993 123.291 116.994C123.574 116.993 123.845 116.871 124.045 116.652C124.245 116.434 124.357 116.139 124.358 115.83V110.717H126.552L124.358 100.49V99.9203H124.703H124.727L126.371 106.305C126.439 106.525 126.581 106.71 126.769 106.819C126.958 106.928 127.177 106.954 127.383 106.891C127.588 106.828 127.763 106.682 127.872 106.481C127.981 106.281 128.015 106.043 127.967 105.816L126.301 99.3466C126.291 99.3092 126.279 99.2725 126.265 99.2367C126.054 98.2764 125.959 97.7027 125.428 97.2673C124.44 96.4535 119.665 96.4535 118.678 97.2673C118.104 97.7393 117.895 98.4616 117.645 99.4809H117.66L116.031 105.81C115.971 106.041 115.999 106.288 116.106 106.497C116.214 106.706 116.393 106.859 116.604 106.924C116.816 106.989 117.042 106.959 117.233 106.842C117.425 106.725 117.566 106.529 117.625 106.299L119.271 99.9122H119.301H119.674V100.209V100.217ZM122.003 92C122.384 92 122.757 92.1234 123.074 92.3545C123.391 92.5857 123.638 92.9142 123.784 93.2986C123.93 93.683 123.968 94.106 123.894 94.5141C123.819 94.9222 123.636 95.297 123.366 95.5912C123.096 95.8854 122.753 96.0858 122.379 96.1669C122.005 96.2481 121.617 96.2064 121.265 96.0472C120.913 95.888 120.612 95.6184 120.4 95.2724C120.188 94.9265 120.075 94.5197 120.075 94.1037C120.075 93.5457 120.278 93.0107 120.64 92.6162C121.001 92.2216 121.492 92 122.003 92Z" fill="white"/>
</g>
<circle cx="93" cy="92" r="88.5" stroke="#646060" stroke-width="5"/>
<defs>
<clipPath id="clip0_108_439">
<rect width="10" height="25" fill="white" transform="translate(101 128)"/>
</clipPath>
<clipPath id="clip1_108_439">
<rect width="37" height="93" fill="white" transform="translate(49 22)"/>
</clipPath>
<clipPath id="clip2_108_439">
<rect width="10" height="25" fill="white" transform="translate(88 128)"/>
</clipPath>
<clipPath id="clip3_108_439">
<rect width="10" height="25" fill="white" transform="translate(96 102)"/>
</clipPath>
<clipPath id="clip4_108_439">
<rect width="10" height="25" fill="white" transform="translate(122 127)"/>
</clipPath>
<clipPath id="clip5_108_439">
<rect width="10" height="25" fill="white" transform="translate(128 107)"/>
</clipPath>
<clipPath id="clip6_108_439">
<rect width="12" height="25" fill="white" transform="translate(111 128)"/>
</clipPath>
<clipPath id="clip7_108_439">
<rect width="12" height="25" fill="white" transform="translate(107 108)"/>
</clipPath>
<clipPath id="clip8_108_439">
<rect width="12" height="25" fill="white" transform="translate(82 108)"/>
</clipPath>
<clipPath id="clip9_108_439">
<rect width="12" height="25" fill="white" transform="translate(116 92)"/>
</clipPath>
</defs>
</svg>
