<svg width="197" height="190" viewBox="0 0 197 190" fill="none" xmlns="http://www.w3.org/2000/svg">
<circle cx="97.5" cy="97.5" r="92.5" fill="#F5F5F5"/>
<path d="M100 49L100.003 123.527L95.0029 123.527L95 49.0002L100 49Z" fill="#001F3D"/>
<circle cx="59" cy="56" r="11" fill="#F5F5F5" stroke="#001F3D" stroke-width="2"/>
<circle cx="97.5" cy="39.5" r="10.5" fill="#F5F5F5" stroke="#001F3D" stroke-width="2"/>
<circle cx="136" cy="56" r="11" fill="#F5F5F5" stroke="#001F3D" stroke-width="2"/>
<path d="M121 121V99.7857L136 86.2857V67" stroke="#001F3D" stroke-width="2"/>
<path d="M74 121V99.7857L59 86.2857V67" stroke="#001F3D" stroke-width="2"/>
<path d="M28 138L45.3478 101H161L147.507 138H28Z" stroke="#001F3D" stroke-width="2"/>
<path d="M34.6969 138.15L32 144H151.507L165 105H159.217" stroke="#001F3D" stroke-width="2"/>
<path d="M39.0841 144.143L37.9275 146.273L36 150H154.504L169 109H163.217" stroke="#001F3D" stroke-width="2"/>
</svg>
