<?xml version="1.0" standalone="no"?>
<!DOCTYPE svg PUBLIC "-//W3C//DTD SVG 20010904//EN"
 "http://www.w3.org/TR/2001/REC-SVG-20010904/DTD/svg10.dtd">
<svg version="1.0" xmlns="http://www.w3.org/2000/svg"
 width="271.000000pt" height="146.000000pt" viewBox="0 0 271.000000 146.000000"
 preserveAspectRatio="xMidYMid meet">

<g transform="translate(0.000000,146.000000) scale(0.100000,-0.100000)"
fill="#000000" stroke="none">
<path d="M1396 1076 c-22 -8 -56 -31 -75 -51 -34 -34 -36 -39 -36 -104 0 -60
3 -73 24 -95 29 -30 100 -59 192 -76 37 -6 81 -20 98 -31 26 -16 31 -25 31
-57 0 -77 -48 -106 -167 -100 -56 2 -92 10 -127 27 -50 25 -65 20 -66 -21 0
-22 73 -56 146 -68 159 -27 284 42 284 157 0 91 -47 130 -193 159 -113 22
-151 46 -155 98 -6 70 50 116 141 116 50 0 130 -25 148 -46 16 -20 24 -18 38
13 13 29 14 29 -54 65 -52 28 -173 35 -229 14z"/>
<path d="M2281 1079 c-24 -5 -54 -16 -68 -24 -34 -23 -63 -74 -63 -112 0 -32
-2 -33 -40 -33 -38 0 -40 -2 -40 -30 0 -28 2 -30 40 -30 l40 0 0 -175 0 -175
35 0 35 0 0 175 0 175 60 0 60 0 0 30 0 30 -60 0 -60 0 0 33 c1 54 42 87 111
87 29 0 35 12 23 44 -7 18 -9 18 -73 5z"/>
<path d="M30 1072 c0 -8 118 -360 167 -500 25 -71 27 -73 57 -70 31 3 31 3
107 222 42 120 80 225 85 233 6 10 32 -54 89 -222 l80 -236 34 3 34 3 94 280
c51 154 93 283 93 287 0 5 -15 8 -33 8 l-32 0 -79 -242 -78 -243 -83 240 -82
240 -32 3 c-17 2 -31 2 -31 0 0 -8 -151 -442 -159 -456 -6 -11 -32 56 -85 221
l-77 237 -34 0 c-19 0 -35 -4 -35 -8z"/>
<path d="M985 894 c-45 -25 -65 -45 -87 -87 -22 -45 -27 -135 -9 -189 29 -88
144 -142 254 -118 81 17 111 43 89 78 -7 10 -18 8 -53 -7 -93 -43 -188 -19
-221 56 -10 24 -16 48 -13 53 4 6 68 10 156 10 l149 0 0 43 c-1 56 -30 119
-71 148 -43 31 -148 38 -194 13z m171 -66 c14 -13 27 -41 31 -61 l6 -37 -120
0 c-66 0 -122 3 -126 6 -13 13 22 80 54 102 45 31 119 27 155 -10z"/>
<path d="M1795 893 c-49 -18 -63 -36 -47 -60 6 -10 21 -8 68 8 75 26 130 21
161 -16 13 -14 23 -39 23 -54 0 -28 0 -28 -82 -35 -106 -9 -155 -23 -179 -54
-37 -48 -16 -138 39 -166 72 -37 153 -27 196 25 l26 31 0 -36 c0 -34 2 -36 35
-36 l35 0 0 133 c-1 159 -9 201 -49 241 -28 28 -38 31 -103 33 -50 2 -89 -2
-123 -14z m205 -223 c0 -35 -26 -85 -53 -103 -37 -24 -111 -23 -137 3 -38 38
-19 100 35 113 11 2 50 5 88 6 61 1 67 -1 67 -19z"/>
<path d="M2440 899 c-74 -30 -129 -135 -116 -226 15 -113 90 -177 205 -177 45
0 81 7 114 22 51 23 52 24 37 52 -10 19 -11 19 -53 0 -76 -35 -177 -20 -211
32 -9 13 -19 38 -22 56 l-6 32 157 0 158 0 -5 49 c-11 109 -76 171 -178 170
-30 0 -66 -5 -80 -10z m141 -55 c17 -8 37 -30 45 -49 27 -65 27 -65 -112 -65
l-126 0 6 28 c21 86 109 127 187 86z"/>
<path d="M166 286 c-13 -30 -27 -65 -30 -78 l-7 -23 17 23 c22 30 90 32 99 2
3 -11 11 -20 16 -20 5 0 2 17 -7 38 -8 20 -22 54 -31 75 -8 20 -19 37 -24 37
-5 0 -20 -24 -33 -54z m49 -6 c20 -39 20 -40 -15 -40 -16 0 -30 4 -30 10 0 10
22 60 26 60 2 0 10 -13 19 -30z"/>
<path d="M320 277 c0 -64 11 -87 40 -87 12 1 12 2 -2 11 -14 8 -18 24 -18 74
0 37 -4 65 -10 65 -6 0 -10 -28 -10 -63z"/>
<path d="M1190 330 c0 -5 5 -10 10 -10 6 0 10 5 10 10 0 6 -4 10 -10 10 -5 0
-10 -4 -10 -10z"/>
<path d="M1652 328 c-24 -24 -7 -68 28 -68 9 0 25 -6 36 -14 18 -14 18 -16 2
-32 -13 -14 -22 -15 -47 -6 -18 6 -31 7 -31 2 0 -14 46 -23 74 -16 25 6 42 38
31 56 -3 5 -24 14 -45 20 -29 8 -40 16 -40 30 0 24 33 35 61 20 17 -10 20 -9
17 2 -6 17 -70 22 -86 6z"/>
<path d="M2090 330 c0 -5 5 -10 10 -10 6 0 10 5 10 10 0 6 -4 10 -10 10 -5 0
-10 -4 -10 -10z"/>
<path d="M420 311 c0 -11 -6 -22 -12 -24 -10 -4 -10 -6 0 -6 7 -1 12 -15 12
-34 0 -38 15 -57 45 -56 19 0 19 1 -2 9 -29 12 -33 76 -5 83 16 4 16 5 0 6
-11 1 -18 9 -18 21 0 11 -4 20 -10 20 -5 0 -10 -9 -10 -19z"/>
<path d="M1090 311 c0 -12 -6 -21 -12 -21 -10 0 -10 -2 -1 -8 6 -4 13 -25 15
-47 3 -34 7 -40 28 -43 22 -2 23 -1 8 8 -12 7 -18 23 -18 45 0 24 5 35 18 38
16 4 16 5 0 6 -10 0 -18 7 -18 15 0 8 -4 18 -10 21 -5 3 -10 -3 -10 -14z"/>
<path d="M542 284 c-24 -17 -30 -62 -10 -82 15 -15 65 -16 74 0 5 8 2 9 -11 4
-24 -9 -55 2 -55 20 0 9 11 14 35 14 28 0 35 4 35 20 0 10 -9 24 -19 30 -25
13 -22 13 -49 -6z m56 -21 c2 -9 -8 -13 -33 -13 -33 0 -36 2 -25 15 15 18 51
16 58 -2z"/>
<path d="M711 291 c-8 -5 -20 -7 -28 -4 -10 4 -13 -7 -13 -46 0 -28 5 -51 10
-51 6 0 10 18 10 41 0 32 4 42 20 46 11 3 20 9 20 14 0 11 -1 11 -19 0z"/>
<path d="M815 290 c-3 -5 -12 -7 -20 -3 -12 4 -15 -5 -15 -46 0 -62 18 -68 22
-8 2 35 7 43 25 45 23 3 26 -3 36 -68 3 -14 5 -5 6 21 1 45 -11 69 -35 69 -7
0 -15 -4 -19 -10z"/>
<path d="M958 293 c-30 -8 -20 -20 12 -15 23 3 30 0 30 -12 0 -10 -9 -16 -24
-16 -13 0 -29 -7 -36 -15 -19 -23 5 -45 46 -42 33 2 34 3 34 44 0 32 -5 45
-19 53 -11 5 -21 9 -23 9 -2 -1 -11 -3 -20 -6z m42 -68 c0 -9 -7 -18 -16 -22
-18 -7 -39 11 -30 26 11 17 46 13 46 -4z"/>
<path d="M1426 287 c-21 -16 -24 -60 -6 -82 14 -17 66 -20 75 -5 4 7 -2 9 -19
4 -26 -6 -56 9 -56 27 0 5 18 9 40 9 44 0 52 16 24 44 -19 19 -35 20 -58 3z
m58 -22 c4 -12 -3 -15 -29 -15 -26 0 -33 3 -29 15 4 8 16 15 29 15 13 0 25 -7
29 -15z"/>
<path d="M1825 290 c-17 -7 -15 -9 13 -9 37 -1 47 -31 10 -31 -33 0 -51 -14
-46 -36 2 -15 13 -19 46 -20 l42 -2 0 38 c0 22 -7 45 -16 54 -17 18 -21 18
-49 6z m45 -64 c0 -16 -27 -29 -41 -20 -19 11 -9 34 16 34 15 0 25 -6 25 -14z"/>
<path d="M2205 290 c-3 -5 -12 -7 -20 -3 -12 4 -15 -5 -15 -46 0 -62 18 -68
22 -8 2 35 7 43 25 45 23 3 26 -3 36 -68 3 -14 5 -5 6 21 1 45 -11 69 -35 69
-7 0 -15 -4 -19 -10z"/>
<path d="M2342 285 c-12 -9 -22 -27 -22 -40 0 -29 39 -59 64 -49 10 4 16 1 16
-9 0 -19 -22 -27 -51 -20 -15 4 -20 3 -15 -5 9 -15 41 -15 67 -2 15 9 19 22
19 70 0 45 -4 60 -14 60 -8 0 -20 2 -28 5 -7 3 -23 -2 -36 -10z m53 -40 c0
-25 -4 -30 -25 -30 -16 0 -26 6 -28 18 -6 30 6 49 30 45 18 -2 23 -9 23 -33z"/>
<path d="M2498 289 c-28 -16 -21 -37 18 -54 43 -18 36 -40 -9 -31 -23 5 -28 3
-20 -5 6 -6 23 -9 39 -7 21 2 30 9 32 26 3 18 -2 23 -27 28 -42 9 -41 34 2 35
27 0 29 2 12 9 -26 11 -27 11 -47 -1z"/>
<path d="M1190 240 c0 -27 5 -50 10 -50 6 0 10 23 10 50 0 28 -4 50 -10 50 -5
0 -10 -22 -10 -50z"/>
<path d="M1279 243 c10 -26 23 -49 28 -50 6 -2 19 19 31 47 11 27 17 50 12 50
-5 0 -14 -16 -21 -35 -7 -19 -16 -35 -20 -35 -4 0 -13 16 -19 35 -6 19 -16 35
-21 35 -5 0 0 -21 10 -47z"/>
<path d="M1940 286 c0 -2 9 -24 20 -50 21 -46 34 -56 43 -33 3 6 12 29 21 50
9 20 12 37 7 37 -5 0 -15 -16 -22 -35 -7 -19 -16 -35 -20 -35 -4 0 -13 16 -19
35 -6 19 -16 35 -21 35 -5 0 -9 -2 -9 -4z"/>
<path d="M2090 240 c0 -27 5 -50 10 -50 6 0 10 23 10 50 0 28 -4 50 -10 50 -5
0 -10 -22 -10 -50z"/>
</g>
</svg>
