<svg width="185" height="191" viewBox="0 0 185 191" fill="none" xmlns="http://www.w3.org/2000/svg">
<circle cx="92" cy="96" r="78.5" fill="#001F3D" stroke="#001F3D" stroke-width="5"/>
<circle cx="92" cy="96" r="88.5" stroke="#646060" stroke-width="5"/>
<g clip-path="url(#clip0_108_431)">
<path d="M119.027 72.8704L116.936 81.6449H102.389C104.267 87.6331 108.372 90.6213 114.65 90.6213C121.549 90.6213 128.005 88.3817 134.018 83.9023V101.861C129.033 105.279 123.018 106.988 115.974 106.988C104.582 106.988 96.1534 104.374 90.688 99.1463C85.2226 93.9185 81.8815 88.0846 80.6648 81.6449H72L74.274 72.8704H79.5898C79.5101 72.0233 79.4786 71.1724 79.4953 70.3218C79.4807 69.394 79.5122 68.4661 79.5898 67.5415H73.1813L75.4494 58.7611H80.6648C84.815 42.2537 96.2184 34 114.875 34C120.978 34 127.162 35.6436 133.427 38.9308L129.098 56.3907C124.766 52.3827 120.238 50.3767 115.513 50.3727C109.319 50.3727 105.127 53.1688 102.938 58.7611H120.208L118.112 67.5415H101.243C101.178 68.1831 101.148 69.1039 101.148 70.3218V72.8704H119.027Z" fill="white"/>
</g>
<g clip-path="url(#clip1_108_431)">
<path fill-rule="evenodd" clip-rule="evenodd" d="M63.9315 135.237L64.2207 139.645L61.2817 140.969C60.118 140.699 58.6032 141.2 56.7512 142.481L51.79 145.87C48.0481 148.422 44.9278 148.982 42.4201 147.534C41.0861 146.764 40.2179 145.655 39.8225 144.217C39.427 142.78 39.6007 141.401 40.3478 140.107C41.4152 138.258 43.0369 137.028 45.2081 136.424C47.3768 135.825 49.3743 136.055 51.1797 137.098C51.3164 137.176 51.7516 137.468 52.4921 137.981L53.0453 138.329C53.3909 138.569 53.6497 138.741 53.8382 138.85C55.0214 139.533 56.5335 139.266 58.3864 138.048C58.7205 137.84 59.0684 137.651 59.4066 137.468L63.9315 135.237ZM83.6894 132.824L103.49 120.931L105.864 113.727L79.3717 124.18C76.5205 125.309 76.1099 125.094 75.4491 128.101L75.2367 129.067L69.5082 132.185L69.9199 136.883L76.9822 134.001L78.4178 134.389C80.9448 135.074 81.6042 134.073 83.6894 132.824ZM61.5891 121.572L61.9801 98.8287L66.636 92.1905L71.0386 120.303C71.5156 123.342 72.3694 124.345 70.0696 126.445L69.0636 127.36L69.132 130.094L69.4587 137.66C69.5168 138.811 69.5233 139.594 69.4669 139.986L69.3841 140.597C69.1603 142.194 69.7354 143.385 71.1024 144.175L71.3334 144.308L71.9782 144.617L73.234 145.251C75.5254 146.442 77.0725 148.802 77.8417 152.336C78.6297 155.881 78.2852 158.938 76.8108 161.491C76.0637 162.785 75.0927 163.629 73.8946 164.049C72.6969 164.458 71.5558 164.356 70.4481 163.716C69.0104 162.886 68.1498 160.675 67.8712 157.087L67.1013 147.11C66.9348 144.927 66.4202 143.587 65.567 143.094C65.4633 143.034 65.2931 142.959 65.045 142.844L64.3734 134.036L63.9223 128.318L62.6564 127.06C60.9187 125.335 61.5489 123.818 61.5891 121.572ZM48.9552 145.076L50.1845 144.319C51.2717 143.622 51.9928 142.961 52.3478 142.346C53.0428 141.142 52.4686 140.014 50.6161 138.945C49.2632 138.164 47.6939 137.997 45.9126 138.459C44.1314 138.909 42.8584 139.808 42.0865 141.145C41.6248 141.945 41.5341 142.809 41.8095 143.737C42.0897 144.666 42.6493 145.374 43.4884 145.858C44.8884 146.666 46.7153 146.408 48.9552 145.076ZM69.4379 150.792L69.9803 157.995C70.1582 160.201 70.6584 161.545 71.4598 162.007C72.1291 162.394 72.7558 162.44 73.3616 162.142C73.967 161.856 74.5562 161.227 75.1097 160.268C76.2565 158.282 76.5277 155.842 75.9352 152.949C75.3403 150.061 74.1614 148.108 72.3938 147.087C71.2012 146.398 70.3365 146.535 69.7904 147.481C69.4603 148.053 69.3452 149.156 69.4379 150.792ZM68.1381 136.932C68.56 136.201 68.387 135.608 67.6092 135.159C66.8314 134.71 66.2315 134.856 65.8095 135.587C65.3925 136.31 65.5705 136.894 66.3483 137.343C67.1261 137.792 67.7211 137.654 68.1381 136.932Z" fill="white"/>
</g>
<defs>
<clipPath id="clip0_108_431">
<rect width="62" height="73" fill="white" transform="translate(72 34)"/>
</clipPath>
<clipPath id="clip1_108_431">
<rect width="61" height="47" fill="white" transform="translate(36 143.828) rotate(-60)"/>
</clipPath>
</defs>
</svg>
