<svg width="190" height="190" viewBox="0 0 190 190" fill="none" xmlns="http://www.w3.org/2000/svg">
<circle cx="94.5" cy="92.5" r="92.5" fill="#F5F5F5"/>
<rect x="54" y="78" width="85" height="27" fill="#001F3D" shape-rendering="crispEdges"/>
<path d="M54 63L88 78H54V63Z" fill="#001F3D"/>
<path d="M54 63L88 78H54V63Z" fill="#001F3D"/>
<path d="M139 63L105 78H139V63Z" fill="#001F3D"/>
<path d="M139 63L105 78H139V63Z" fill="#001F3D"/>
<path d="M86 49L89.3333 39H96H102.667L106 49" stroke="#001F3D" stroke-width="2"/>
<path d="M54 58C54 51.9249 58.9249 47 65 47H128C134.075 47 139 51.9249 139 58V58H54V58Z" fill="#001F3D" shape-rendering="crispEdges"/>
<path d="M105 77L139 62L105 62L105 77Z" fill="#001F3D" />
<path d="M105 77L139 62L105 62L105 77Z" fill="#001F3D"/>
<path d="M88 77L54 62L88 62L88 77Z" fill="#001F3D"/>
<path d="M88 77L54 62L88 62L88 77Z" fill="#001F3D"/>
<rect x="88" y="62" width="17" height="15" fill="#001F3D" shape-rendering="crispEdges"/>
<path d="M54 58H139V62H54V58Z" fill="#001F3D" shape-rendering="crispEdges"/>
<path d="M89 80V78H91V80H89Z" fill="#F5F5F5"/>
<path d="M89 80V78H91V80H89Z" fill="#F5F5F5"/>
<path d="M89 80V78H91V80H89Z" fill="#F5F5F5"/>
<path d="M89 80V78H91V80H89Z" fill="#F5F5F5"/>
<rect x="102" y="78" width="2" height="2" fill="#F5F5F5"/>
<rect x="102" y="78" width="2" height="2" fill="#F5F5F5"/>
<rect x="102" y="78" width="2" height="2" fill="#F5F5F5"/>
<rect x="102" y="78" width="2" height="2" fill="#F5F5F5"/>
<path d="M43.7739 125.283C48.41 111.01 53.7272 107.419 65.6664 105" stroke="#001F3D" stroke-width="2"/>
<path d="M146.44 125.166C141.653 110.943 136.298 107.409 124.333 105.117" stroke="#001F3D" stroke-width="2"/>
<path d="M95 105V138" stroke="#001F3D" stroke-width="2"/>
<circle cx="42" cy="136" r="12" fill="#F5F5F5" stroke="#001F3D" stroke-width="2"/>
<circle cx="95" cy="151" r="12" fill="#F5F5F5" stroke="#001F3D" stroke-width="2"/>
<path d="M160 137.5C160 143.815 154.665 149 148 149C141.335 149 136 143.815 136 137.5C136 131.185 141.335 126 148 126C154.665 126 160 131.185 160 137.5Z" fill="#F5F5F5" stroke="#001F3D" stroke-width="2"/>
</svg>
