<svg width="194" height="192" viewBox="0 0 194 192" fill="none" xmlns="http://www.w3.org/2000/svg">
<circle cx="98.5" cy="98.5" r="92.5" fill="#F5F5F5"/>
<path d="M104 39.7861H81V44.3462H104V39.7861Z" fill="#001F3D"/>
<path d="M98.4211 24.5346L92.6121 20L86.5789 24.5333L77.8947 23.1433L70 21.7463L81.4474 38.9064H104.285L115 21.7463L98.4211 24.5346ZM92.5 21.397L96.4474 24.5404L92.6115 26.2867L88.5526 24.5404L92.5 21.397ZM101.974 37.1138L92.6115 37.1138L83.5584 37.1138L75.1316 24.1911L85.7895 25.5882L92.5 28.033L99.6053 25.9374L110.263 24.1911L101.974 37.1138Z" fill="#001F3D"/>
<path d="M93.013 45.5202C68.7441 45.5202 49 59.3782 49 76.412V126.93C49 133.142 56.2001 138.196 65.0505 138.196H120.976C129.826 138.196 137.026 133.142 137.026 126.93V76.412C137.026 59.3779 117.282 45.5202 93.013 45.5202ZM131.525 122.727H125.889V126.524H131.525V126.93C131.525 131.013 126.793 134.334 120.976 134.334L65.0505 135.685C59.234 135.685 51.7429 132.23 51.7429 128.147V124.85L59.9023 124.85V121.552L51.7429 121.552V100.824V76.412C51.7429 61.5074 71.7777 48.5318 93.013 48.5318C114.248 48.5318 132.762 60.4798 132.762 75.3844L131.525 122.727Z" fill="#001F3D"/>
<path d="M77 121.5H67V125H77V121.5Z" fill="#001F3D"/>
<path d="M94 121.5H84V125H94V121.5Z" fill="#001F3D"/>
<path d="M93.9913 65C82.4168 65 73 74.2916 73 85.713C73 97.1345 82.4165 106.426 93.9913 106.426C105.566 106.426 114.983 97.1345 114.983 85.713C114.983 74.2916 105.566 65 93.9913 65ZM93.9913 101.823C84.9889 101.823 77.6651 94.5959 77.6651 85.713C77.6651 76.8301 84.9889 69.6032 93.9913 69.6032C102.994 69.6032 110.318 76.8301 110.318 85.713C110.318 94.5959 102.994 101.823 93.9913 101.823Z" fill="#001F3D"/>
<path d="M97.1326 86.1186L96.5931 88.4027H92.84C93.3246 89.9616 94.3836 90.7395 96.0034 90.7395C97.7832 90.7395 99.4488 90.1564 101 88.9904V93.6654C99.7139 94.5551 98.1622 95 96.3448 95C93.4058 95 91.2314 94.3196 89.8213 92.9587C88.4113 91.5978 87.5493 90.0791 87.2354 88.4027H85L85.5867 86.1186H86.9581C86.9375 85.8981 86.9294 85.6766 86.9337 85.4552C86.9299 85.2136 86.9381 84.9721 86.9581 84.7314H85.3048L85.8899 82.4457H87.2354C88.3062 78.1486 91.2481 76 96.0613 76C97.6359 76 99.2314 76.4279 100.848 77.2836L99.7307 81.8287C98.6132 80.7853 97.445 80.2631 96.2259 80.2621C94.6279 80.2621 93.5465 80.99 92.9817 82.4457H97.4373L96.8964 84.7314H92.5444C92.5276 84.8984 92.52 85.1381 92.52 85.4552V86.1186H97.1326Z" fill="#001F3D"/>
<mask id="path-9-inside-1_169_2" fill="white">
<path d="M65.7129 145.721L152.752 81.7057L176.65 114.199L89.611 178.214L65.7129 145.721Z"/>
</mask>
<path d="M65.7129 145.721L152.752 81.7057L176.65 114.199L89.611 178.214L65.7129 145.721Z" fill="#F5F5F5"/>
<path d="M68.0829 148.944L155.122 84.928L150.382 78.4834L63.343 142.499L68.0829 148.944Z" fill="#001F3D" mask="url(#path-9-inside-1_169_2)"/>
<g clip-path="url(#clip0_169_2)">
<rect x="87.5" y="136.5" width="31" height="42" fill="#F5F5F5" stroke="#001F3D"/>
<path d="M103.201 154H101.616C101.522 153.544 101.358 153.143 101.124 152.798C100.894 152.453 100.613 152.163 100.28 151.929C99.9521 151.69 99.5877 151.511 99.1871 151.392C98.7866 151.273 98.369 151.213 97.9343 151.213C97.1417 151.213 96.4237 151.413 95.7802 151.814C95.141 152.214 94.6317 152.805 94.2525 153.585C93.8775 154.364 93.69 155.321 93.69 156.455C93.69 157.588 93.8775 158.545 94.2525 159.325C94.6317 160.104 95.141 160.695 95.7802 161.095C96.4237 161.496 97.1417 161.696 97.9343 161.696C98.369 161.696 98.7866 161.636 99.1871 161.517C99.5877 161.398 99.9521 161.221 100.28 160.987C100.613 160.748 100.894 160.456 101.124 160.111C101.358 159.761 101.522 159.361 101.616 158.909H103.201C103.082 159.578 102.865 160.177 102.549 160.705C102.234 161.234 101.842 161.683 101.373 162.054C100.904 162.42 100.378 162.7 99.7944 162.891C99.2148 163.083 98.5948 163.179 97.9343 163.179C96.8178 163.179 95.8249 162.906 94.9556 162.361C94.0863 161.815 93.4023 161.04 92.9038 160.034C92.4052 159.028 92.1559 157.835 92.1559 156.455C92.1559 155.074 92.4052 153.881 92.9038 152.875C93.4023 151.869 94.0863 151.094 94.9556 150.548C95.8249 150.003 96.8178 149.73 97.9343 149.73C98.5948 149.73 99.2148 149.826 99.7944 150.018C100.378 150.21 100.904 150.491 101.373 150.862C101.842 151.228 102.234 151.675 102.549 152.204C102.865 152.728 103.082 153.327 103.201 154ZM109.547 163.205C108.661 163.205 107.883 162.994 107.214 162.572C106.549 162.15 106.029 161.56 105.654 160.801C105.284 160.043 105.098 159.156 105.098 158.142C105.098 157.119 105.284 156.227 105.654 155.464C106.029 154.701 106.549 154.109 107.214 153.687C107.883 153.265 108.661 153.054 109.547 153.054C110.433 153.054 111.209 153.265 111.874 153.687C112.543 154.109 113.063 154.701 113.433 155.464C113.808 156.227 113.996 157.119 113.996 158.142C113.996 159.156 113.808 160.043 113.433 160.801C113.063 161.56 112.543 162.15 111.874 162.572C111.209 162.994 110.433 163.205 109.547 163.205ZM109.547 161.849C110.22 161.849 110.774 161.677 111.209 161.332C111.644 160.987 111.965 160.533 112.174 159.97C112.383 159.408 112.487 158.798 112.487 158.142C112.487 157.486 112.383 156.874 112.174 156.308C111.965 155.741 111.644 155.283 111.209 154.933C110.774 154.584 110.22 154.409 109.547 154.409C108.874 154.409 108.32 154.584 107.885 154.933C107.45 155.283 107.129 155.741 106.92 156.308C106.711 156.874 106.607 157.486 106.607 158.142C106.607 158.798 106.711 159.408 106.92 159.97C107.129 160.533 107.45 160.987 107.885 161.332C108.32 161.677 108.874 161.849 109.547 161.849Z" fill="#001F3D"/>
<path d="M91.6023 145V144.489L93.5227 142.386C93.7481 142.14 93.9337 141.926 94.0795 141.744C94.2254 141.561 94.3333 141.388 94.4034 141.227C94.4754 141.064 94.5114 140.894 94.5114 140.716C94.5114 140.511 94.4621 140.334 94.3636 140.185C94.267 140.035 94.1345 139.92 93.9659 139.838C93.7973 139.757 93.608 139.716 93.3977 139.716C93.1742 139.716 92.9792 139.762 92.8125 139.855C92.6477 139.946 92.5199 140.074 92.429 140.239C92.34 140.403 92.2955 140.597 92.2955 140.818H91.625C91.625 140.477 91.7036 140.178 91.8608 139.92C92.018 139.663 92.232 139.462 92.5028 139.318C92.7756 139.174 93.0814 139.102 93.4205 139.102C93.7614 139.102 94.0634 139.174 94.3267 139.318C94.59 139.462 94.7964 139.656 94.946 139.901C95.0956 140.145 95.1705 140.417 95.1705 140.716C95.1705 140.93 95.1316 141.139 95.054 141.344C94.9782 141.546 94.8456 141.773 94.6562 142.023C94.4688 142.271 94.2083 142.574 93.875 142.932L92.5682 144.33V144.375H95.2727V145H91.6023ZM96.6278 145L99.2301 139.852V139.807H96.2301V139.182H99.9574V139.841L97.3665 145H96.6278Z" fill="#001F3D"/>
<path d="M94.4205 171.08C94.0871 171.08 93.7869 171.013 93.5199 170.881C93.2528 170.748 93.0388 170.566 92.8778 170.335C92.7169 170.104 92.6288 169.841 92.6136 169.545H93.2955C93.322 169.809 93.4413 170.027 93.6534 170.199C93.8674 170.369 94.1231 170.455 94.4205 170.455C94.6591 170.455 94.8712 170.399 95.0568 170.287C95.2443 170.175 95.3911 170.022 95.4972 169.827C95.6051 169.63 95.6591 169.407 95.6591 169.159C95.6591 168.905 95.6032 168.679 95.4915 168.48C95.3816 168.279 95.2301 168.121 95.0369 168.006C94.8438 167.89 94.6231 167.831 94.375 167.83C94.197 167.828 94.0142 167.855 93.8267 167.912C93.6392 167.967 93.4848 168.038 93.3636 168.125L92.7045 168.045L93.0568 165.182H96.0795V165.807H93.6477L93.4432 167.523H93.4773C93.5966 167.428 93.7462 167.349 93.9261 167.287C94.1061 167.224 94.2936 167.193 94.4886 167.193C94.8447 167.193 95.1619 167.278 95.4403 167.449C95.7206 167.617 95.9403 167.848 96.0994 168.142C96.2604 168.436 96.3409 168.771 96.3409 169.148C96.3409 169.519 96.2576 169.85 96.0909 170.142C95.9261 170.432 95.6989 170.661 95.4091 170.83C95.1193 170.996 94.7898 171.08 94.4205 171.08ZM99.3331 171.08C98.9429 171.08 98.5982 171.01 98.299 170.872C98.0017 170.732 97.7696 170.54 97.603 170.295C97.4363 170.049 97.3539 169.769 97.3558 169.455C97.3539 169.208 97.4022 168.981 97.5007 168.773C97.5992 168.562 97.7337 168.387 97.9041 168.247C98.0765 168.105 98.2687 168.015 98.4808 167.977V167.943C98.2024 167.871 97.9808 167.715 97.8161 167.474C97.6513 167.232 97.5698 166.956 97.5717 166.648C97.5698 166.352 97.6446 166.088 97.7962 165.855C97.9477 165.622 98.156 165.438 98.4212 165.304C98.6882 165.17 98.9922 165.102 99.3331 165.102C99.6702 165.102 99.9714 165.17 100.237 165.304C100.502 165.438 100.71 165.622 100.862 165.855C101.015 166.088 101.093 166.352 101.094 166.648C101.093 166.956 101.008 167.232 100.842 167.474C100.677 167.715 100.458 167.871 100.185 167.943V167.977C100.396 168.015 100.585 168.105 100.754 168.247C100.922 168.387 101.057 168.562 101.157 168.773C101.257 168.981 101.308 169.208 101.31 169.455C101.308 169.769 101.223 170.049 101.055 170.295C100.888 170.54 100.656 170.732 100.359 170.872C100.063 171.01 99.7214 171.08 99.3331 171.08ZM99.3331 170.455C99.5964 170.455 99.8236 170.412 100.015 170.327C100.206 170.241 100.354 170.121 100.458 169.966C100.562 169.811 100.615 169.629 100.617 169.42C100.615 169.201 100.558 169.007 100.447 168.838C100.335 168.67 100.183 168.537 99.9893 168.44C99.7981 168.344 99.5793 168.295 99.3331 168.295C99.085 168.295 98.8634 168.344 98.6683 168.44C98.4751 168.537 98.3227 168.67 98.2109 168.838C98.1011 169.007 98.0471 169.201 98.049 169.42C98.0471 169.629 98.0973 169.811 98.1996 169.966C98.3037 170.121 98.4524 170.241 98.6456 170.327C98.8388 170.412 99.0679 170.455 99.3331 170.455ZM99.3331 167.693C99.5414 167.693 99.7261 167.652 99.8871 167.568C100.05 167.485 100.178 167.368 100.271 167.219C100.363 167.069 100.411 166.894 100.413 166.693C100.411 166.496 100.364 166.325 100.273 166.179C100.183 166.031 100.057 165.918 99.8956 165.838C99.7346 165.757 99.5471 165.716 99.3331 165.716C99.1153 165.716 98.925 165.757 98.7621 165.838C98.5992 165.918 98.4732 166.031 98.3842 166.179C98.2952 166.325 98.2517 166.496 98.2536 166.693C98.2517 166.894 98.2962 167.069 98.3871 167.219C98.4799 167.368 98.6077 167.485 98.7706 167.568C98.9335 167.652 99.121 167.693 99.3331 167.693ZM102.719 171.045C102.579 171.045 102.459 170.995 102.359 170.895C102.258 170.795 102.208 170.674 102.208 170.534C102.208 170.394 102.258 170.274 102.359 170.173C102.459 170.073 102.579 170.023 102.719 170.023C102.86 170.023 102.98 170.073 103.08 170.173C103.181 170.274 103.231 170.394 103.231 170.534C103.231 170.627 103.207 170.712 103.16 170.79C103.114 170.867 103.053 170.93 102.975 170.977C102.899 171.023 102.814 171.045 102.719 171.045ZM106.22 165.102C106.459 165.104 106.697 165.15 106.936 165.239C107.175 165.328 107.393 165.475 107.589 165.682C107.786 165.886 107.945 166.166 108.064 166.52C108.183 166.874 108.243 167.318 108.243 167.852C108.243 168.369 108.194 168.829 108.095 169.23C107.999 169.63 107.858 169.967 107.675 170.241C107.493 170.516 107.271 170.724 107.01 170.866C106.75 171.009 106.457 171.08 106.129 171.08C105.804 171.08 105.513 171.015 105.257 170.886C105.003 170.756 104.795 170.575 104.632 170.344C104.471 170.111 104.368 169.841 104.322 169.534H105.016C105.078 169.801 105.202 170.022 105.388 170.196C105.575 170.368 105.822 170.455 106.129 170.455C106.578 170.455 106.932 170.259 107.192 169.866C107.453 169.474 107.584 168.92 107.584 168.205H107.538C107.432 168.364 107.306 168.501 107.161 168.616C107.015 168.732 106.853 168.821 106.675 168.884C106.497 168.946 106.307 168.977 106.107 168.977C105.773 168.977 105.467 168.895 105.189 168.73C104.912 168.563 104.691 168.335 104.524 168.045C104.359 167.754 104.277 167.42 104.277 167.045C104.277 166.689 104.357 166.364 104.516 166.068C104.677 165.771 104.902 165.534 105.192 165.358C105.483 165.182 105.826 165.097 106.22 165.102ZM106.22 165.727C105.982 165.727 105.767 165.787 105.575 165.906C105.386 166.024 105.235 166.183 105.124 166.384C105.014 166.582 104.959 166.803 104.959 167.045C104.959 167.288 105.012 167.509 105.118 167.707C105.226 167.904 105.373 168.062 105.558 168.179C105.746 168.295 105.959 168.352 106.197 168.352C106.377 168.352 106.545 168.317 106.7 168.247C106.856 168.175 106.991 168.078 107.107 167.955C107.224 167.83 107.316 167.688 107.382 167.531C107.448 167.372 107.482 167.206 107.482 167.034C107.482 166.807 107.427 166.594 107.317 166.395C107.209 166.196 107.059 166.035 106.868 165.912C106.679 165.789 106.463 165.727 106.22 165.727ZM111.326 171.08C110.951 171.08 110.617 171.015 110.323 170.886C110.031 170.758 109.799 170.579 109.627 170.349C109.457 170.118 109.364 169.85 109.349 169.545H110.065C110.08 169.733 110.144 169.895 110.258 170.031C110.371 170.166 110.52 170.27 110.704 170.344C110.888 170.418 111.091 170.455 111.315 170.455C111.565 170.455 111.786 170.411 111.979 170.324C112.173 170.237 112.324 170.116 112.434 169.96C112.544 169.805 112.599 169.625 112.599 169.42C112.599 169.206 112.546 169.018 112.44 168.855C112.334 168.69 112.178 168.562 111.974 168.469C111.769 168.376 111.519 168.33 111.224 168.33H110.758V167.705H111.224C111.455 167.705 111.657 167.663 111.832 167.58C112.008 167.496 112.145 167.379 112.244 167.227C112.344 167.076 112.394 166.898 112.394 166.693C112.394 166.496 112.351 166.325 112.263 166.179C112.176 166.033 112.053 165.92 111.894 165.838C111.737 165.757 111.551 165.716 111.337 165.716C111.137 165.716 110.947 165.753 110.769 165.827C110.593 165.899 110.449 166.004 110.337 166.142C110.226 166.278 110.165 166.443 110.156 166.636H109.474C109.485 166.331 109.577 166.064 109.749 165.835C109.922 165.604 110.147 165.424 110.425 165.295C110.706 165.167 111.013 165.102 111.349 165.102C111.709 165.102 112.017 165.175 112.275 165.321C112.532 165.465 112.73 165.655 112.869 165.892C113.007 166.129 113.076 166.384 113.076 166.659C113.076 166.987 112.99 167.266 112.817 167.497C112.647 167.728 112.415 167.888 112.121 167.977V168.023C112.489 168.083 112.776 168.24 112.982 168.491C113.189 168.741 113.292 169.051 113.292 169.42C113.292 169.737 113.206 170.021 113.033 170.273C112.863 170.523 112.63 170.72 112.335 170.864C112.039 171.008 111.703 171.08 111.326 171.08Z" fill="#001F3D"/>
</g>
<g clip-path="url(#clip1_169_2)">
<rect x="115.5" y="116.5" width="31" height="42" fill="#F5F5F5" stroke="#001F3D"/>
<path d="M134.054 129.909V143H132.52L125.386 132.722H125.258V143H123.673V129.909H125.207L132.366 140.213H132.494V129.909H134.054ZM137.021 143V133.182H138.53V143H137.021ZM137.788 131.545C137.494 131.545 137.241 131.445 137.028 131.245C136.819 131.045 136.714 130.804 136.714 130.523C136.714 130.241 136.819 130.001 137.028 129.8C137.241 129.6 137.494 129.5 137.788 129.5C138.082 129.5 138.334 129.6 138.543 129.8C138.756 130.001 138.862 130.241 138.862 130.523C138.862 130.804 138.756 131.045 138.543 131.245C138.334 131.445 138.082 131.545 137.788 131.545Z" fill="#001F3D"/>
<path d="M119.602 125V124.489L121.523 122.386C121.748 122.14 121.934 121.926 122.08 121.744C122.225 121.561 122.333 121.388 122.403 121.227C122.475 121.064 122.511 120.894 122.511 120.716C122.511 120.511 122.462 120.334 122.364 120.185C122.267 120.035 122.134 119.92 121.966 119.838C121.797 119.757 121.608 119.716 121.398 119.716C121.174 119.716 120.979 119.762 120.812 119.855C120.648 119.946 120.52 120.074 120.429 120.239C120.34 120.403 120.295 120.597 120.295 120.818H119.625C119.625 120.477 119.704 120.178 119.861 119.92C120.018 119.663 120.232 119.462 120.503 119.318C120.776 119.174 121.081 119.102 121.42 119.102C121.761 119.102 122.063 119.174 122.327 119.318C122.59 119.462 122.796 119.656 122.946 119.901C123.096 120.145 123.17 120.417 123.17 120.716C123.17 120.93 123.132 121.139 123.054 121.344C122.978 121.546 122.846 121.773 122.656 122.023C122.469 122.271 122.208 122.574 121.875 122.932L120.568 124.33V124.375H123.273V125H119.602ZM126.31 125.08C125.92 125.08 125.575 125.01 125.276 124.872C124.978 124.732 124.746 124.54 124.58 124.295C124.413 124.049 124.33 123.769 124.332 123.455C124.33 123.208 124.379 122.981 124.477 122.773C124.576 122.562 124.71 122.387 124.881 122.247C125.053 122.105 125.245 122.015 125.457 121.977V121.943C125.179 121.871 124.957 121.715 124.793 121.474C124.628 121.232 124.546 120.956 124.548 120.648C124.546 120.352 124.621 120.088 124.773 119.855C124.924 119.622 125.133 119.438 125.398 119.304C125.665 119.17 125.969 119.102 126.31 119.102C126.647 119.102 126.948 119.17 127.213 119.304C127.478 119.438 127.687 119.622 127.838 119.855C127.991 120.088 128.069 120.352 128.071 120.648C128.069 120.956 127.985 121.232 127.818 121.474C127.653 121.715 127.435 121.871 127.162 121.943V121.977C127.372 122.015 127.562 122.105 127.73 122.247C127.899 122.387 128.033 122.562 128.134 122.773C128.234 122.981 128.285 123.208 128.287 123.455C128.285 123.769 128.2 124.049 128.031 124.295C127.865 124.54 127.633 124.732 127.335 124.872C127.04 125.01 126.698 125.08 126.31 125.08ZM126.31 124.455C126.573 124.455 126.8 124.412 126.991 124.327C127.183 124.241 127.33 124.121 127.435 123.966C127.539 123.811 127.592 123.629 127.594 123.42C127.592 123.201 127.535 123.007 127.423 122.838C127.312 122.67 127.159 122.537 126.966 122.44C126.775 122.344 126.556 122.295 126.31 122.295C126.062 122.295 125.84 122.344 125.645 122.44C125.452 122.537 125.299 122.67 125.188 122.838C125.078 123.007 125.024 123.201 125.026 123.42C125.024 123.629 125.074 123.811 125.176 123.966C125.28 124.121 125.429 124.241 125.622 124.327C125.815 124.412 126.045 124.455 126.31 124.455ZM126.31 121.693C126.518 121.693 126.703 121.652 126.864 121.568C127.027 121.485 127.154 121.368 127.247 121.219C127.34 121.069 127.387 120.894 127.389 120.693C127.387 120.496 127.341 120.325 127.25 120.179C127.159 120.031 127.033 119.918 126.872 119.838C126.711 119.757 126.524 119.716 126.31 119.716C126.092 119.716 125.902 119.757 125.739 119.838C125.576 119.918 125.45 120.031 125.361 120.179C125.272 120.325 125.228 120.496 125.23 120.693C125.228 120.894 125.273 121.069 125.364 121.219C125.456 121.368 125.584 121.485 125.747 121.568C125.91 121.652 126.098 121.693 126.31 121.693Z" fill="#001F3D"/>
<path d="M122.42 151.08C122.087 151.08 121.787 151.013 121.52 150.881C121.253 150.748 121.039 150.566 120.878 150.335C120.717 150.104 120.629 149.841 120.614 149.545H121.295C121.322 149.809 121.441 150.027 121.653 150.199C121.867 150.369 122.123 150.455 122.42 150.455C122.659 150.455 122.871 150.399 123.057 150.287C123.244 150.175 123.391 150.022 123.497 149.827C123.605 149.63 123.659 149.407 123.659 149.159C123.659 148.905 123.603 148.679 123.491 148.48C123.382 148.279 123.23 148.121 123.037 148.006C122.844 147.89 122.623 147.831 122.375 147.83C122.197 147.828 122.014 147.855 121.827 147.912C121.639 147.967 121.485 148.038 121.364 148.125L120.705 148.045L121.057 145.182H124.08V145.807H121.648L121.443 147.523H121.477C121.597 147.428 121.746 147.349 121.926 147.287C122.106 147.224 122.294 147.193 122.489 147.193C122.845 147.193 123.162 147.278 123.44 147.449C123.721 147.617 123.94 147.848 124.099 148.142C124.26 148.436 124.341 148.771 124.341 149.148C124.341 149.519 124.258 149.85 124.091 150.142C123.926 150.432 123.699 150.661 123.409 150.83C123.119 150.996 122.79 151.08 122.42 151.08ZM127.333 151.08C126.943 151.08 126.598 151.01 126.299 150.872C126.002 150.732 125.77 150.54 125.603 150.295C125.436 150.049 125.354 149.769 125.356 149.455C125.354 149.208 125.402 148.981 125.501 148.773C125.599 148.562 125.734 148.387 125.904 148.247C126.076 148.105 126.269 148.015 126.481 147.977V147.943C126.202 147.871 125.981 147.715 125.816 147.474C125.651 147.232 125.57 146.956 125.572 146.648C125.57 146.352 125.645 146.088 125.796 145.855C125.948 145.622 126.156 145.438 126.421 145.304C126.688 145.17 126.992 145.102 127.333 145.102C127.67 145.102 127.971 145.17 128.237 145.304C128.502 145.438 128.71 145.622 128.862 145.855C129.015 146.088 129.093 146.352 129.094 146.648C129.093 146.956 129.008 147.232 128.842 147.474C128.677 147.715 128.458 147.871 128.185 147.943V147.977C128.396 148.015 128.585 148.105 128.754 148.247C128.922 148.387 129.057 148.562 129.157 148.773C129.257 148.981 129.308 149.208 129.31 149.455C129.308 149.769 129.223 150.049 129.055 150.295C128.888 150.54 128.656 150.732 128.359 150.872C128.063 151.01 127.721 151.08 127.333 151.08ZM127.333 150.455C127.596 150.455 127.824 150.412 128.015 150.327C128.206 150.241 128.354 150.121 128.458 149.966C128.562 149.811 128.615 149.629 128.617 149.42C128.615 149.201 128.558 149.007 128.447 148.838C128.335 148.67 128.183 148.537 127.989 148.44C127.798 148.344 127.579 148.295 127.333 148.295C127.085 148.295 126.863 148.344 126.668 148.44C126.475 148.537 126.323 148.67 126.211 148.838C126.101 149.007 126.047 149.201 126.049 149.42C126.047 149.629 126.097 149.811 126.2 149.966C126.304 150.121 126.452 150.241 126.646 150.327C126.839 150.412 127.068 150.455 127.333 150.455ZM127.333 147.693C127.541 147.693 127.726 147.652 127.887 147.568C128.05 147.485 128.178 147.368 128.271 147.219C128.363 147.069 128.411 146.894 128.413 146.693C128.411 146.496 128.364 146.325 128.273 146.179C128.183 146.031 128.057 145.918 127.896 145.838C127.735 145.757 127.547 145.716 127.333 145.716C127.115 145.716 126.925 145.757 126.762 145.838C126.599 145.918 126.473 146.031 126.384 146.179C126.295 146.325 126.252 146.496 126.254 146.693C126.252 146.894 126.296 147.069 126.387 147.219C126.48 147.368 126.608 147.485 126.771 147.568C126.933 147.652 127.121 147.693 127.333 147.693ZM130.719 151.045C130.579 151.045 130.459 150.995 130.359 150.895C130.258 150.795 130.208 150.674 130.208 150.534C130.208 150.394 130.258 150.274 130.359 150.173C130.459 150.073 130.579 150.023 130.719 150.023C130.86 150.023 130.98 150.073 131.08 150.173C131.181 150.274 131.231 150.394 131.231 150.534C131.231 150.627 131.207 150.712 131.16 150.79C131.114 150.867 131.053 150.93 130.975 150.977C130.899 151.023 130.814 151.045 130.719 151.045ZM134.151 151.08C133.913 151.076 133.674 151.03 133.435 150.943C133.197 150.856 132.979 150.709 132.782 150.503C132.585 150.295 132.427 150.013 132.308 149.659C132.188 149.303 132.129 148.856 132.129 148.318C132.129 147.803 132.177 147.347 132.273 146.949C132.37 146.549 132.51 146.213 132.694 145.94C132.878 145.666 133.099 145.457 133.359 145.315C133.62 145.173 133.915 145.102 134.242 145.102C134.568 145.102 134.858 145.168 135.112 145.298C135.367 145.427 135.576 145.607 135.737 145.838C135.897 146.069 136.002 146.335 136.049 146.636H135.356C135.291 146.375 135.166 146.158 134.981 145.986C134.795 145.813 134.549 145.727 134.242 145.727C133.791 145.727 133.436 145.923 133.177 146.315C132.919 146.707 132.79 147.258 132.788 147.966H132.833C132.939 147.805 133.065 147.668 133.211 147.554C133.359 147.438 133.522 147.349 133.7 147.287C133.878 147.224 134.066 147.193 134.265 147.193C134.598 147.193 134.903 147.277 135.18 147.443C135.456 147.608 135.678 147.836 135.844 148.128C136.011 148.418 136.094 148.75 136.094 149.125C136.094 149.485 136.014 149.814 135.853 150.114C135.692 150.411 135.466 150.648 135.174 150.824C134.884 150.998 134.543 151.083 134.151 151.08ZM134.151 150.455C134.39 150.455 134.604 150.395 134.793 150.276C134.985 150.156 135.135 149.996 135.245 149.795C135.357 149.595 135.413 149.371 135.413 149.125C135.413 148.884 135.359 148.666 135.251 148.469C135.145 148.27 134.998 148.112 134.81 147.994C134.625 147.877 134.413 147.818 134.174 147.818C133.994 147.818 133.826 147.854 133.671 147.926C133.516 147.996 133.379 148.093 133.262 148.216C133.147 148.339 133.056 148.48 132.989 148.639C132.923 148.796 132.89 148.962 132.89 149.136C132.89 149.367 132.944 149.583 133.052 149.784C133.162 149.985 133.311 150.147 133.501 150.27C133.692 150.393 133.909 150.455 134.151 150.455ZM139.064 145.102C139.303 145.104 139.541 145.15 139.78 145.239C140.018 145.328 140.236 145.475 140.433 145.682C140.63 145.886 140.788 146.166 140.908 146.52C141.027 146.874 141.087 147.318 141.087 147.852C141.087 148.369 141.037 148.829 140.939 149.23C140.842 149.63 140.702 149.967 140.518 150.241C140.337 150.516 140.115 150.724 139.854 150.866C139.594 151.009 139.301 151.08 138.973 151.08C138.647 151.08 138.357 151.015 138.101 150.886C137.847 150.756 137.639 150.575 137.476 150.344C137.315 150.111 137.212 149.841 137.166 149.534H137.859C137.922 149.801 138.046 150.022 138.232 150.196C138.419 150.368 138.666 150.455 138.973 150.455C139.422 150.455 139.776 150.259 140.036 149.866C140.297 149.474 140.428 148.92 140.428 148.205H140.382C140.276 148.364 140.15 148.501 140.004 148.616C139.858 148.732 139.696 148.821 139.518 148.884C139.34 148.946 139.151 148.977 138.95 148.977C138.617 148.977 138.311 148.895 138.033 148.73C137.756 148.563 137.535 148.335 137.368 148.045C137.203 147.754 137.121 147.42 137.121 147.045C137.121 146.689 137.2 146.364 137.359 146.068C137.52 145.771 137.746 145.534 138.036 145.358C138.327 145.182 138.67 145.097 139.064 145.102ZM139.064 145.727C138.825 145.727 138.61 145.787 138.419 145.906C138.23 146.024 138.079 146.183 137.967 146.384C137.857 146.582 137.803 146.803 137.803 147.045C137.803 147.288 137.856 147.509 137.962 147.707C138.07 147.904 138.216 148.062 138.402 148.179C138.589 148.295 138.803 148.352 139.041 148.352C139.221 148.352 139.389 148.317 139.544 148.247C139.699 148.175 139.835 148.078 139.95 147.955C140.068 147.83 140.16 147.688 140.226 147.531C140.292 147.372 140.325 147.206 140.325 147.034C140.325 146.807 140.27 146.594 140.161 146.395C140.053 146.196 139.903 146.035 139.712 145.912C139.522 145.789 139.306 145.727 139.064 145.727Z" fill="#001F3D"/>
</g>
<g clip-path="url(#clip2_169_2)">
<rect x="143.5" y="95.5" width="31" height="42" fill="#F5F5F5" stroke="#001F3D"/>
<rect x="143.5" y="95.5" width="31" height="42" fill="#F5F5F5" stroke="#001F3D"/>
<path d="M157.842 112H156.257C156.163 111.544 155.999 111.143 155.765 110.798C155.534 110.453 155.253 110.163 154.921 109.929C154.593 109.69 154.228 109.511 153.828 109.392C153.427 109.273 153.01 109.213 152.575 109.213C151.782 109.213 151.064 109.413 150.421 109.814C149.782 110.214 149.272 110.805 148.893 111.585C148.518 112.364 148.331 113.321 148.331 114.455C148.331 115.588 148.518 116.545 148.893 117.325C149.272 118.104 149.782 118.695 150.421 119.095C151.064 119.496 151.782 119.696 152.575 119.696C153.01 119.696 153.427 119.636 153.828 119.517C154.228 119.398 154.593 119.221 154.921 118.987C155.253 118.748 155.534 118.456 155.765 118.111C155.999 117.761 156.163 117.361 156.257 116.909H157.842C157.723 117.578 157.505 118.177 157.19 118.705C156.875 119.234 156.483 119.683 156.014 120.054C155.545 120.42 155.019 120.7 154.435 120.891C153.855 121.083 153.235 121.179 152.575 121.179C151.458 121.179 150.466 120.906 149.596 120.361C148.727 119.815 148.043 119.04 147.544 118.034C147.046 117.028 146.797 115.835 146.797 114.455C146.797 113.074 147.046 111.881 147.544 110.875C148.043 109.869 148.727 109.094 149.596 108.548C150.466 108.003 151.458 107.73 152.575 107.73C153.235 107.73 153.855 107.826 154.435 108.018C155.019 108.21 155.545 108.491 156.014 108.862C156.483 109.228 156.875 109.675 157.19 110.204C157.505 110.728 157.723 111.327 157.842 112ZM166.387 116.986V111.182H167.895V121H166.387V119.338H166.284C166.054 119.837 165.696 120.261 165.21 120.61C164.725 120.955 164.111 121.128 163.369 121.128C162.756 121.128 162.21 120.994 161.733 120.725C161.256 120.452 160.881 120.043 160.608 119.498C160.335 118.948 160.199 118.256 160.199 117.42V111.182H161.708V117.318C161.708 118.034 161.908 118.605 162.308 119.031C162.713 119.457 163.229 119.67 163.855 119.67C164.23 119.67 164.612 119.575 164.999 119.383C165.392 119.191 165.72 118.897 165.984 118.501C166.252 118.104 166.387 117.599 166.387 116.986Z" fill="#001F3D"/>
<path d="M147.259 104V103.489L149.18 101.386C149.405 101.14 149.591 100.926 149.737 100.744C149.883 100.561 149.99 100.388 150.061 100.227C150.133 100.064 150.169 99.8939 150.169 99.7159C150.169 99.5114 150.119 99.3343 150.021 99.1847C149.924 99.035 149.792 98.9195 149.623 98.8381C149.454 98.7566 149.265 98.7159 149.055 98.7159C148.831 98.7159 148.636 98.7623 148.47 98.8551C148.305 98.946 148.177 99.0739 148.086 99.2386C147.997 99.4034 147.953 99.5966 147.953 99.8182H147.282C147.282 99.4773 147.361 99.178 147.518 98.9205C147.675 98.6629 147.889 98.4621 148.16 98.3182C148.433 98.1742 148.739 98.1023 149.078 98.1023C149.419 98.1023 149.721 98.1742 149.984 98.3182C150.247 98.4621 150.454 98.6562 150.603 98.9006C150.753 99.1449 150.828 99.4167 150.828 99.7159C150.828 99.9299 150.789 100.139 150.711 100.344C150.635 100.546 150.503 100.773 150.313 101.023C150.126 101.271 149.865 101.574 149.532 101.932L148.225 103.33V103.375H150.93V104H147.259ZM153.955 98.1023C154.194 98.1042 154.433 98.1496 154.671 98.2386C154.91 98.3277 155.128 98.4754 155.325 98.6818C155.522 98.8864 155.68 99.1657 155.799 99.5199C155.919 99.8741 155.978 100.318 155.978 100.852C155.978 101.369 155.929 101.829 155.83 102.23C155.734 102.63 155.594 102.967 155.41 103.241C155.228 103.516 155.007 103.724 154.745 103.866C154.486 104.009 154.192 104.08 153.865 104.08C153.539 104.08 153.248 104.015 152.992 103.886C152.739 103.756 152.53 103.575 152.367 103.344C152.206 103.111 152.103 102.841 152.058 102.534H152.751C152.813 102.801 152.937 103.022 153.123 103.196C153.311 103.368 153.558 103.455 153.865 103.455C154.313 103.455 154.668 103.259 154.927 102.866C155.188 102.474 155.319 101.92 155.319 101.205H155.274C155.168 101.364 155.042 101.501 154.896 101.616C154.75 101.732 154.588 101.821 154.41 101.884C154.232 101.946 154.043 101.977 153.842 101.977C153.508 101.977 153.203 101.895 152.924 101.73C152.648 101.563 152.426 101.335 152.259 101.045C152.095 100.754 152.012 100.42 152.012 100.045C152.012 99.6894 152.092 99.3636 152.251 99.0682C152.412 98.7708 152.637 98.5341 152.927 98.358C153.219 98.1818 153.561 98.0966 153.955 98.1023ZM153.955 98.7273C153.717 98.7273 153.502 98.7869 153.311 98.9062C153.121 99.0237 152.971 99.1828 152.859 99.3835C152.749 99.5824 152.694 99.803 152.694 100.045C152.694 100.288 152.747 100.509 152.853 100.707C152.961 100.904 153.108 101.062 153.294 101.179C153.481 101.295 153.694 101.352 153.933 101.352C154.113 101.352 154.28 101.317 154.436 101.247C154.591 101.175 154.726 101.078 154.842 100.955C154.959 100.83 155.051 100.688 155.117 100.531C155.184 100.372 155.217 100.206 155.217 100.034C155.217 99.8068 155.162 99.5937 155.052 99.3949C154.944 99.196 154.794 99.035 154.603 98.9119C154.414 98.7888 154.198 98.7273 153.955 98.7273Z" fill="#001F3D"/>
<path d="M151.02 130.08C150.781 130.076 150.543 130.03 150.304 129.943C150.065 129.856 149.847 129.709 149.65 129.503C149.454 129.295 149.295 129.013 149.176 128.659C149.057 128.303 148.997 127.856 148.997 127.318C148.997 126.803 149.045 126.347 149.142 125.949C149.239 125.549 149.379 125.213 149.562 124.94C149.746 124.666 149.968 124.457 150.227 124.315C150.489 124.173 150.783 124.102 151.111 124.102C151.436 124.102 151.726 124.168 151.98 124.298C152.236 124.427 152.444 124.607 152.605 124.838C152.766 125.069 152.87 125.335 152.918 125.636H152.224C152.16 125.375 152.035 125.158 151.849 124.986C151.664 124.813 151.418 124.727 151.111 124.727C150.66 124.727 150.305 124.923 150.045 125.315C149.788 125.707 149.658 126.258 149.656 126.966H149.702C149.808 126.805 149.934 126.668 150.079 126.554C150.227 126.438 150.39 126.349 150.568 126.287C150.746 126.224 150.935 126.193 151.133 126.193C151.467 126.193 151.772 126.277 152.048 126.443C152.325 126.608 152.546 126.836 152.713 127.128C152.88 127.418 152.963 127.75 152.963 128.125C152.963 128.485 152.882 128.814 152.722 129.114C152.561 129.411 152.334 129.648 152.043 129.824C151.753 129.998 151.412 130.083 151.02 130.08ZM151.02 129.455C151.258 129.455 151.472 129.395 151.662 129.276C151.853 129.156 152.004 128.996 152.114 128.795C152.225 128.595 152.281 128.371 152.281 128.125C152.281 127.884 152.227 127.666 152.119 127.469C152.013 127.27 151.866 127.112 151.679 126.994C151.493 126.877 151.281 126.818 151.043 126.818C150.863 126.818 150.695 126.854 150.54 126.926C150.384 126.996 150.248 127.093 150.131 127.216C150.015 127.339 149.924 127.48 149.858 127.639C149.792 127.796 149.758 127.962 149.758 128.136C149.758 128.367 149.812 128.583 149.92 128.784C150.03 128.985 150.18 129.147 150.369 129.27C150.561 129.393 150.777 129.455 151.02 129.455ZM156.046 130.08C155.671 130.08 155.337 130.015 155.043 129.886C154.752 129.758 154.52 129.579 154.347 129.349C154.177 129.118 154.084 128.85 154.069 128.545H154.785C154.8 128.733 154.864 128.895 154.978 129.031C155.092 129.166 155.24 129.27 155.424 129.344C155.608 129.418 155.811 129.455 156.035 129.455C156.285 129.455 156.506 129.411 156.699 129.324C156.893 129.237 157.044 129.116 157.154 128.96C157.264 128.805 157.319 128.625 157.319 128.42C157.319 128.206 157.266 128.018 157.16 127.855C157.054 127.69 156.898 127.562 156.694 127.469C156.489 127.376 156.239 127.33 155.944 127.33H155.478V126.705H155.944C156.175 126.705 156.378 126.663 156.552 126.58C156.728 126.496 156.865 126.379 156.964 126.227C157.064 126.076 157.114 125.898 157.114 125.693C157.114 125.496 157.071 125.325 156.984 125.179C156.896 125.033 156.773 124.92 156.614 124.838C156.457 124.757 156.271 124.716 156.057 124.716C155.857 124.716 155.667 124.753 155.489 124.827C155.313 124.899 155.169 125.004 155.057 125.142C154.946 125.278 154.885 125.443 154.876 125.636H154.194C154.205 125.331 154.297 125.064 154.469 124.835C154.642 124.604 154.867 124.424 155.146 124.295C155.426 124.167 155.734 124.102 156.069 124.102C156.429 124.102 156.737 124.175 156.995 124.321C157.253 124.465 157.45 124.655 157.589 124.892C157.727 125.129 157.796 125.384 157.796 125.659C157.796 125.987 157.71 126.266 157.538 126.497C157.367 126.728 157.135 126.888 156.842 126.977V127.023C157.209 127.083 157.496 127.24 157.702 127.491C157.909 127.741 158.012 128.051 158.012 128.42C158.012 128.737 157.926 129.021 157.753 129.273C157.583 129.523 157.35 129.72 157.055 129.864C156.759 130.008 156.423 130.08 156.046 130.08ZM159.494 130.045C159.354 130.045 159.234 129.995 159.133 129.895C159.033 129.795 158.983 129.674 158.983 129.534C158.983 129.394 159.033 129.274 159.133 129.173C159.234 129.073 159.354 129.023 159.494 129.023C159.634 129.023 159.755 129.073 159.855 129.173C159.955 129.274 160.006 129.394 160.006 129.534C160.006 129.627 159.982 129.712 159.935 129.79C159.889 129.867 159.828 129.93 159.75 129.977C159.674 130.023 159.589 130.045 159.494 130.045ZM162.898 130.08C162.565 130.08 162.265 130.013 161.998 129.881C161.731 129.748 161.517 129.566 161.356 129.335C161.195 129.104 161.107 128.841 161.092 128.545H161.773C161.8 128.809 161.919 129.027 162.131 129.199C162.345 129.369 162.601 129.455 162.898 129.455C163.137 129.455 163.349 129.399 163.535 129.287C163.722 129.175 163.869 129.022 163.975 128.827C164.083 128.63 164.137 128.407 164.137 128.159C164.137 127.905 164.081 127.679 163.969 127.48C163.86 127.279 163.708 127.121 163.515 127.006C163.322 126.89 163.101 126.831 162.853 126.83C162.675 126.828 162.492 126.855 162.305 126.912C162.117 126.967 161.963 127.038 161.842 127.125L161.182 127.045L161.535 124.182H164.557V124.807H162.126L161.921 126.523H161.955C162.074 126.428 162.224 126.349 162.404 126.287C162.584 126.224 162.771 126.193 162.967 126.193C163.323 126.193 163.64 126.278 163.918 126.449C164.199 126.617 164.418 126.848 164.577 127.142C164.738 127.436 164.819 127.771 164.819 128.148C164.819 128.519 164.735 128.85 164.569 129.142C164.404 129.432 164.177 129.661 163.887 129.83C163.597 129.996 163.268 130.08 162.898 130.08ZM167.766 130.08C167.432 130.08 167.132 130.013 166.865 129.881C166.598 129.748 166.384 129.566 166.223 129.335C166.062 129.104 165.974 128.841 165.959 128.545H166.641C166.667 128.809 166.786 129.027 166.999 129.199C167.213 129.369 167.468 129.455 167.766 129.455C168.004 129.455 168.216 129.399 168.402 129.287C168.589 129.175 168.736 129.022 168.842 128.827C168.95 128.63 169.004 128.407 169.004 128.159C169.004 127.905 168.948 127.679 168.837 127.48C168.727 127.279 168.575 127.121 168.382 127.006C168.189 126.89 167.968 126.831 167.72 126.83C167.542 126.828 167.359 126.855 167.172 126.912C166.984 126.967 166.83 127.038 166.709 127.125L166.05 127.045L166.402 124.182H169.425V124.807H166.993L166.788 126.523H166.822C166.942 126.428 167.091 126.349 167.271 126.287C167.451 126.224 167.639 126.193 167.834 126.193C168.19 126.193 168.507 126.278 168.785 126.449C169.066 126.617 169.285 126.848 169.445 127.142C169.606 127.436 169.686 127.771 169.686 128.148C169.686 128.519 169.603 128.85 169.436 129.142C169.271 129.432 169.044 129.661 168.754 129.83C168.464 129.996 168.135 130.08 167.766 130.08Z" fill="#001F3D"/>
</g>
<defs>
<clipPath id="clip0_169_2">
<rect width="32" height="43" fill="white" transform="translate(87 136)"/>
</clipPath>
<clipPath id="clip1_169_2">
<rect width="32" height="43" fill="white" transform="translate(115 116)"/>
</clipPath>
<clipPath id="clip2_169_2">
<rect width="32" height="43" fill="white" transform="translate(143 95)"/>
</clipPath>
</defs>
</svg>
