<svg width="194" height="192" viewBox="0 0 194 192" fill="none" xmlns="http://www.w3.org/2000/svg">
<circle cx="98.5" cy="98.5" r="92.5" fill="#F5F5F5"/>
<g clip-path="url(#clip0_5_48)">
<path d="M103 51H80V55.8398H103V51Z" fill="#001F3D"/>
<path d="M97.4211 34.8128L91.6121 30L85.5789 34.8114L76.8947 33.3362L69 31.8534L80.4474 50.0663H103.285L114 31.8534L97.4211 34.8128ZM91.5 31.4828L95.4474 34.8189L91.6115 36.6724L87.5526 34.8189L91.5 31.4828ZM100.974 48.1637L91.6115 48.1637L82.5584 48.1637L74.1316 34.4483L84.7895 35.931L91.5 38.5258L98.6053 36.3017L109.263 34.4483L100.974 48.1637Z" fill="#001F3D"/>
<path d="M90.6512 74.0631C75.2183 74.0631 62.6631 85.0943 62.6631 98.6533C62.6631 112.212 75.2186 123.243 90.6512 123.243C106.084 123.243 118.64 112.212 118.64 98.6533C118.64 85.0946 106.084 74.0631 90.6512 74.0631ZM90.6512 119.145C77.7907 119.145 67.3276 109.953 67.3276 98.6533C67.3276 87.3539 77.7904 78.1613 90.6512 78.1613C103.512 78.1613 113.975 87.3541 113.975 98.6533C113.975 109.953 103.512 119.145 90.6512 119.145Z" fill="#001F3D"/>
<path d="M90.6511 56.8037C63.9771 56.8037 42.2763 71.5118 42.2763 89.5907V143.208C42.2763 149.801 50.1899 155.165 59.9175 155.165H121.385C131.112 155.165 139.026 149.801 139.026 143.208V89.5907C139.026 71.5116 117.326 56.8037 90.6511 56.8037ZM132.979 138.747H126.786V142.777H132.979V143.208C132.979 147.541 127.778 151.066 121.386 151.066L59.9175 152.5C53.5245 152.5 45.291 148.833 45.291 144.5V141L54.259 141V137.5L45.291 137.5V115.5V89.5907C45.291 73.7716 67.3113 60 90.6511 60C113.991 60 134.34 72.681 134.34 88.5L132.979 138.747Z" fill="#001F3D"/>
<path d="M116.387 137.565H65.0233V141H116.387V137.565Z" fill="#001F3D"/>
<path d="M90.6512 80.2104C79.0767 80.2104 69.6599 88.4837 69.6599 98.6534C69.6599 108.823 79.0764 117.096 90.6512 117.096C102.226 117.096 111.643 108.823 111.643 98.6534C111.643 88.4837 102.226 80.2104 90.6512 80.2104ZM90.6512 112.998C81.6488 112.998 74.325 106.563 74.325 98.6534C74.325 90.744 81.6488 84.3091 90.6512 84.3091C99.6536 84.3091 106.978 90.744 106.978 98.6534C106.978 106.563 99.6536 112.998 90.6512 112.998Z" fill="#001F3D"/>
<path d="M92.8996 97.7236L92.3846 99.6533H88.8012C89.2638 100.97 90.275 101.627 91.8215 101.627C93.5208 101.627 95.111 101.135 96.5921 100.15V104.099C95.3642 104.851 93.8826 105.227 92.1474 105.227C89.3414 105.227 87.2653 104.652 85.9191 103.502C84.5728 102.353 83.7498 101.07 83.4501 99.6533H81.3158L81.8759 97.7236H83.1853C83.1657 97.5373 83.1579 97.3502 83.162 97.1631C83.1584 96.9591 83.1662 96.755 83.1853 96.5517H81.6068L82.1654 94.6207H83.4501C84.4724 90.9904 87.2813 89.1753 91.8768 89.1753C93.3802 89.1753 94.9035 89.5367 96.4466 90.2596L95.3802 94.0994C94.3133 93.218 93.1979 92.7768 92.0339 92.7759C90.5083 92.7759 89.4758 93.3909 88.9365 94.6207H93.1906L92.6741 96.5517H88.5189C88.5029 96.6928 88.4957 96.8953 88.4957 97.1631V97.7236H92.8996Z" fill="#001F3D"/>
<mask id="path-9-inside-1_5_48" fill="white">
<path d="M57.8444 152.674L152.514 58.0044L194.54 100.03L99.8701 194.7L57.8444 152.674Z"/>
</mask>
<path d="M57.8444 152.674L152.514 58.0044L194.54 100.03L99.8701 194.7L57.8444 152.674Z" fill="#F5F5F5"/>
<path d="M60.6728 155.502L155.342 60.8329L149.685 55.176L55.016 149.845L60.6728 155.502Z" fill="#001F3D" mask="url(#path-9-inside-1_5_48)"/>
</g>
<g clip-path="url(#clip1_5_48)">
<rect x="70.5" y="143.5" width="31" height="42" fill="#F5F5F5" stroke="#001F3D"/>
<rect x="70.5" y="143.5" width="31" height="42" fill="#F5F5F5" stroke="#001F3D"/>
<path d="M78.887 169V155.909H80.4722V167.594H86.5574V169H78.887ZM88.8074 169V159.182H90.316V169H88.8074ZM89.5745 157.545C89.2805 157.545 89.0269 157.445 88.8138 157.245C88.605 157.045 88.5006 156.804 88.5006 156.523C88.5006 156.241 88.605 156.001 88.8138 155.8C89.0269 155.6 89.2805 155.5 89.5745 155.5C89.8685 155.5 90.1199 155.6 90.3287 155.8C90.5418 156.001 90.6483 156.241 90.6483 156.523C90.6483 156.804 90.5418 157.045 90.3287 157.245C90.1199 157.445 89.8685 157.545 89.5745 157.545Z" fill="#001F3D"/>
<path d="M76.2253 152.08C75.8503 152.08 75.516 152.015 75.2225 151.886C74.9308 151.758 74.6988 151.579 74.5265 151.349C74.356 151.118 74.2632 150.85 74.2481 150.545H74.964C74.9791 150.733 75.0435 150.895 75.1571 151.031C75.2708 151.166 75.4195 151.27 75.6032 151.344C75.7869 151.418 75.9905 151.455 76.214 151.455C76.464 151.455 76.6856 151.411 76.8787 151.324C77.0719 151.237 77.2234 151.116 77.3333 150.96C77.4431 150.805 77.4981 150.625 77.4981 150.42C77.4981 150.206 77.445 150.018 77.339 149.855C77.2329 149.69 77.0776 149.562 76.8731 149.469C76.6685 149.376 76.4185 149.33 76.1231 149.33H75.6571V148.705H76.1231C76.3541 148.705 76.5568 148.663 76.731 148.58C76.9071 148.496 77.0445 148.379 77.1429 148.227C77.2433 148.076 77.2935 147.898 77.2935 147.693C77.2935 147.496 77.2499 147.325 77.1628 147.179C77.0757 147.033 76.9526 146.92 76.7935 146.838C76.6363 146.757 76.4507 146.716 76.2367 146.716C76.0359 146.716 75.8465 146.753 75.6685 146.827C75.4924 146.899 75.3484 147.004 75.2367 147.142C75.1249 147.278 75.0643 147.443 75.0549 147.636H74.3731C74.3844 147.331 74.4763 147.064 74.6486 146.835C74.821 146.604 75.0463 146.424 75.3248 146.295C75.6051 146.167 75.9128 146.102 76.2481 146.102C76.6079 146.102 76.9166 146.175 77.1742 146.321C77.4318 146.465 77.6297 146.655 77.7679 146.892C77.9062 147.129 77.9753 147.384 77.9753 147.659C77.9753 147.987 77.8892 148.266 77.7168 148.497C77.5463 148.728 77.3143 148.888 77.0208 148.977V149.023C77.3882 149.083 77.6751 149.24 77.8816 149.491C78.088 149.741 78.1912 150.051 78.1912 150.42C78.1912 150.737 78.1051 151.021 77.9327 151.273C77.7623 151.523 77.5293 151.72 77.2338 151.864C76.9384 152.008 76.6022 152.08 76.2253 152.08Z" fill="#001F3D"/>
<path d="M78.0198 178.08C77.7812 178.076 77.5425 178.03 77.3039 177.943C77.0653 177.856 76.8475 177.709 76.6505 177.503C76.4535 177.295 76.2954 177.013 76.1761 176.659C76.0567 176.303 75.9971 175.856 75.9971 175.318C75.9971 174.803 76.0454 174.347 76.142 173.949C76.2386 173.549 76.3787 173.213 76.5624 172.94C76.7461 172.666 76.9677 172.457 77.2272 172.315C77.4886 172.173 77.7831 172.102 78.1107 172.102C78.4365 172.102 78.7262 172.168 78.98 172.298C79.2357 172.427 79.444 172.607 79.605 172.838C79.766 173.069 79.8702 173.335 79.9175 173.636H79.2244C79.16 173.375 79.035 173.158 78.8494 172.986C78.6637 172.813 78.4175 172.727 78.1107 172.727C77.66 172.727 77.3048 172.923 77.0454 173.315C76.7878 173.707 76.6581 174.258 76.6562 174.966H76.7016C76.8077 174.805 76.9336 174.668 77.0795 174.554C77.2272 174.438 77.3901 174.349 77.5681 174.287C77.7461 174.224 77.9346 174.193 78.1334 174.193C78.4668 174.193 78.7717 174.277 79.0482 174.443C79.3247 174.608 79.5463 174.836 79.713 175.128C79.8797 175.418 79.963 175.75 79.963 176.125C79.963 176.485 79.8825 176.814 79.7215 177.114C79.5605 177.411 79.3342 177.648 79.0425 177.824C78.7528 177.998 78.4119 178.083 78.0198 178.08ZM78.0198 177.455C78.2584 177.455 78.4725 177.395 78.6619 177.276C78.8531 177.156 79.0037 176.996 79.1136 176.795C79.2253 176.595 79.2812 176.371 79.2812 176.125C79.2812 175.884 79.2272 175.666 79.1192 175.469C79.0132 175.27 78.8664 175.112 78.6789 174.994C78.4933 174.877 78.2812 174.818 78.0425 174.818C77.8626 174.818 77.695 174.854 77.5397 174.926C77.3844 174.996 77.248 175.093 77.1306 175.216C77.0151 175.339 76.9242 175.48 76.8579 175.639C76.7916 175.796 76.7584 175.962 76.7584 176.136C76.7584 176.367 76.8124 176.583 76.9204 176.784C77.0302 176.985 77.1798 177.147 77.3692 177.27C77.5605 177.393 77.7774 177.455 78.0198 177.455ZM81.3067 178.045C81.1666 178.045 81.0463 177.995 80.9459 177.895C80.8456 177.795 80.7954 177.674 80.7954 177.534C80.7954 177.394 80.8456 177.274 80.9459 177.173C81.0463 177.073 81.1666 177.023 81.3067 177.023C81.4469 177.023 81.5672 177.073 81.6675 177.173C81.7679 177.274 81.8181 177.394 81.8181 177.534C81.8181 177.627 81.7944 177.712 81.7471 177.79C81.7016 177.867 81.6401 177.93 81.5624 177.977C81.4867 178.023 81.4014 178.045 81.3067 178.045ZM84.8074 172.102C85.0461 172.104 85.2847 172.15 85.5234 172.239C85.762 172.328 85.9798 172.475 86.1768 172.682C86.3737 172.886 86.5319 173.166 86.6512 173.52C86.7705 173.874 86.8302 174.318 86.8302 174.852C86.8302 175.369 86.7809 175.829 86.6824 176.23C86.5859 176.63 86.4457 176.967 86.262 177.241C86.0802 177.516 85.8586 177.724 85.5972 177.866C85.3378 178.009 85.0442 178.08 84.7165 178.08C84.3908 178.08 84.1001 178.015 83.8444 177.886C83.5906 177.756 83.3823 177.575 83.2194 177.344C83.0584 177.111 82.9552 176.841 82.9097 176.534H83.6029C83.6654 176.801 83.7895 177.022 83.9751 177.196C84.1626 177.368 84.4097 177.455 84.7165 177.455C85.1654 177.455 85.5196 177.259 85.779 176.866C86.0404 176.474 86.1711 175.92 86.1711 175.205H86.1256C86.0196 175.364 85.8936 175.501 85.7478 175.616C85.602 175.732 85.44 175.821 85.262 175.884C85.084 175.946 84.8946 175.977 84.6938 175.977C84.3605 175.977 84.0546 175.895 83.7762 175.73C83.4997 175.563 83.2781 175.335 83.1114 175.045C82.9467 174.754 82.8643 174.42 82.8643 174.045C82.8643 173.689 82.9438 173.364 83.1029 173.068C83.2639 172.771 83.4893 172.534 83.779 172.358C84.0707 172.182 84.4135 172.097 84.8074 172.102ZM84.8074 172.727C84.5688 172.727 84.3538 172.787 84.1626 172.906C83.9732 173.024 83.8226 173.183 83.7109 173.384C83.601 173.582 83.5461 173.803 83.5461 174.045C83.5461 174.288 83.5991 174.509 83.7052 174.707C83.8131 174.904 83.9599 175.062 84.1455 175.179C84.333 175.295 84.5461 175.352 84.7847 175.352C84.9646 175.352 85.1323 175.317 85.2876 175.247C85.4429 175.175 85.5783 175.078 85.6938 174.955C85.8112 174.83 85.9031 174.688 85.9694 174.531C86.0357 174.372 86.0688 174.206 86.0688 174.034C86.0688 173.807 86.0139 173.594 85.904 173.395C85.7961 173.196 85.6465 173.035 85.4552 172.912C85.2658 172.789 85.0499 172.727 84.8074 172.727ZM87.811 176.807V176.227L90.3678 172.182H90.7883V173.08H90.5042L88.5724 176.136V176.182H92.0155V176.807H87.811ZM90.5496 178V176.631V176.361V172.182H91.2201V178H90.5496Z" fill="#001F3D"/>
</g>
<g clip-path="url(#clip2_5_48)">
<rect x="92.5" y="122.5" width="31" height="42" fill="#F5F5F5" stroke="#001F3D"/>
<rect x="92.5" y="122.5" width="31" height="42" fill="#F5F5F5" stroke="#001F3D"/>
<path d="M100.158 148H98.4964L103.303 134.909H104.94L109.746 148H108.084L104.172 136.98H104.07L100.158 148ZM100.772 142.886H107.471V144.293H100.772V142.886ZM113.371 134.909V148H111.785V134.909H113.371Z" fill="#001F3D"/>
<path d="M98.3049 125.182V131H97.6003V125.92H97.5662L96.1458 126.864V126.148L97.6003 125.182H98.3049ZM101.944 131.08C101.569 131.08 101.235 131.015 100.941 130.886C100.65 130.758 100.418 130.579 100.245 130.349C100.075 130.118 99.982 129.85 99.9668 129.545H100.683C100.698 129.733 100.762 129.895 100.876 130.031C100.99 130.166 101.138 130.27 101.322 130.344C101.506 130.418 101.709 130.455 101.933 130.455C102.183 130.455 102.404 130.411 102.597 130.324C102.791 130.237 102.942 130.116 103.052 129.96C103.162 129.805 103.217 129.625 103.217 129.42C103.217 129.206 103.164 129.018 103.058 128.855C102.952 128.69 102.796 128.562 102.592 128.469C102.387 128.376 102.137 128.33 101.842 128.33H101.376V127.705H101.842C102.073 127.705 102.276 127.663 102.45 127.58C102.626 127.496 102.763 127.379 102.862 127.227C102.962 127.076 103.012 126.898 103.012 126.693C103.012 126.496 102.969 126.325 102.882 126.179C102.794 126.033 102.671 125.92 102.512 125.838C102.355 125.757 102.169 125.716 101.955 125.716C101.755 125.716 101.565 125.753 101.387 125.827C101.211 125.899 101.067 126.004 100.955 126.142C100.844 126.278 100.783 126.443 100.774 126.636H100.092C100.103 126.331 100.195 126.064 100.367 125.835C100.54 125.604 100.765 125.424 101.044 125.295C101.324 125.167 101.632 125.102 101.967 125.102C102.327 125.102 102.635 125.175 102.893 125.321C103.151 125.465 103.348 125.655 103.487 125.892C103.625 126.129 103.694 126.384 103.694 126.659C103.694 126.987 103.608 127.266 103.436 127.497C103.265 127.728 103.033 127.888 102.74 127.977V128.023C103.107 128.083 103.394 128.24 103.6 128.491C103.807 128.741 103.91 129.051 103.91 129.42C103.91 129.737 103.824 130.021 103.651 130.273C103.481 130.523 103.248 130.72 102.953 130.864C102.657 131.008 102.321 131.08 101.944 131.08Z" fill="#001F3D"/>
<path d="M98.088 157V156.489L100.008 154.386C100.234 154.14 100.419 153.926 100.565 153.744C100.711 153.561 100.819 153.388 100.889 153.227C100.961 153.064 100.997 152.894 100.997 152.716C100.997 152.511 100.948 152.334 100.849 152.185C100.753 152.035 100.62 151.92 100.452 151.838C100.283 151.757 100.094 151.716 99.8834 151.716C99.66 151.716 99.4649 151.762 99.2982 151.855C99.1334 151.946 99.0056 152.074 98.9147 152.239C98.8257 152.403 98.7812 152.597 98.7812 152.818H98.1107C98.1107 152.477 98.1893 152.178 98.3465 151.92C98.5037 151.663 98.7177 151.462 98.9886 151.318C99.2613 151.174 99.5672 151.102 99.9062 151.102C100.247 151.102 100.549 151.174 100.812 151.318C101.076 151.462 101.282 151.656 101.432 151.901C101.581 152.145 101.656 152.417 101.656 152.716C101.656 152.93 101.617 153.139 101.54 153.344C101.464 153.546 101.331 153.773 101.142 154.023C100.954 154.271 100.694 154.574 100.361 154.932L99.0539 156.33V156.375H101.758V157H98.088ZM104.864 157.08C104.625 157.076 104.386 157.03 104.148 156.943C103.909 156.856 103.691 156.709 103.494 156.503C103.297 156.295 103.139 156.013 103.02 155.659C102.9 155.303 102.841 154.856 102.841 154.318C102.841 153.803 102.889 153.347 102.986 152.949C103.082 152.549 103.222 152.213 103.406 151.94C103.59 151.666 103.811 151.457 104.071 151.315C104.332 151.173 104.627 151.102 104.954 151.102C105.28 151.102 105.57 151.168 105.824 151.298C106.079 151.427 106.288 151.607 106.449 151.838C106.61 152.069 106.714 152.335 106.761 152.636H106.068C106.004 152.375 105.879 152.158 105.693 151.986C105.507 151.813 105.261 151.727 104.954 151.727C104.504 151.727 104.149 151.923 103.889 152.315C103.632 152.707 103.502 153.258 103.5 153.966H103.545C103.651 153.805 103.777 153.668 103.923 153.554C104.071 153.438 104.234 153.349 104.412 153.287C104.59 153.224 104.778 153.193 104.977 153.193C105.311 153.193 105.615 153.277 105.892 153.443C106.168 153.608 106.39 153.836 106.557 154.128C106.723 154.418 106.807 154.75 106.807 155.125C106.807 155.485 106.726 155.814 106.565 156.114C106.404 156.411 106.178 156.648 105.886 156.824C105.597 156.998 105.256 157.083 104.864 157.08ZM104.864 156.455C105.102 156.455 105.316 156.395 105.506 156.276C105.697 156.156 105.847 155.996 105.957 155.795C106.069 155.595 106.125 155.371 106.125 155.125C106.125 154.884 106.071 154.666 105.963 154.469C105.857 154.27 105.71 154.112 105.523 153.994C105.337 153.877 105.125 153.818 104.886 153.818C104.706 153.818 104.539 153.854 104.383 153.926C104.228 153.996 104.092 154.093 103.974 154.216C103.859 154.339 103.768 154.48 103.702 154.639C103.635 154.796 103.602 154.962 103.602 155.136C103.602 155.367 103.656 155.583 103.764 155.784C103.874 155.985 104.024 156.147 104.213 156.27C104.404 156.393 104.621 156.455 104.864 156.455ZM108.15 157.045C108.01 157.045 107.89 156.995 107.79 156.895C107.689 156.795 107.639 156.674 107.639 156.534C107.639 156.394 107.689 156.274 107.79 156.173C107.89 156.073 108.01 156.023 108.15 156.023C108.291 156.023 108.411 156.073 108.511 156.173C108.612 156.274 108.662 156.394 108.662 156.534C108.662 156.627 108.638 156.712 108.591 156.79C108.545 156.867 108.484 156.93 108.406 156.977C108.33 157.023 108.245 157.045 108.15 157.045ZM111.651 151.102C111.89 151.104 112.128 151.15 112.367 151.239C112.606 151.328 112.824 151.475 113.021 151.682C113.217 151.886 113.376 152.166 113.495 152.52C113.614 152.874 113.674 153.318 113.674 153.852C113.674 154.369 113.625 154.829 113.526 155.23C113.43 155.63 113.289 155.967 113.106 156.241C112.924 156.516 112.702 156.724 112.441 156.866C112.182 157.009 111.888 157.08 111.56 157.08C111.235 157.08 110.944 157.015 110.688 156.886C110.434 156.756 110.226 156.575 110.063 156.344C109.902 156.111 109.799 155.841 109.753 155.534H110.447C110.509 155.801 110.633 156.022 110.819 156.196C111.006 156.368 111.253 156.455 111.56 156.455C112.009 156.455 112.363 156.259 112.623 155.866C112.884 155.474 113.015 154.92 113.015 154.205H112.969C112.863 154.364 112.737 154.501 112.592 154.616C112.446 154.732 112.284 154.821 112.106 154.884C111.928 154.946 111.738 154.977 111.538 154.977C111.204 154.977 110.898 154.895 110.62 154.73C110.343 154.563 110.122 154.335 109.955 154.045C109.79 153.754 109.708 153.42 109.708 153.045C109.708 152.689 109.788 152.364 109.947 152.068C110.108 151.771 110.333 151.534 110.623 151.358C110.914 151.182 111.257 151.097 111.651 151.102ZM111.651 151.727C111.413 151.727 111.198 151.787 111.006 151.906C110.817 152.024 110.666 152.183 110.555 152.384C110.445 152.582 110.39 152.803 110.39 153.045C110.39 153.288 110.443 153.509 110.549 153.707C110.657 153.904 110.804 154.062 110.989 154.179C111.177 154.295 111.39 154.352 111.628 154.352C111.808 154.352 111.976 154.317 112.131 154.247C112.287 154.175 112.422 154.078 112.538 153.955C112.655 153.83 112.747 153.688 112.813 153.531C112.879 153.372 112.913 153.206 112.913 153.034C112.913 152.807 112.858 152.594 112.748 152.395C112.64 152.196 112.49 152.035 112.299 151.912C112.11 151.789 111.894 151.727 111.651 151.727ZM116.655 157.08C116.265 157.08 115.92 157.01 115.621 156.872C115.323 156.732 115.091 156.54 114.925 156.295C114.758 156.049 114.676 155.769 114.677 155.455C114.676 155.208 114.724 154.981 114.822 154.773C114.921 154.562 115.055 154.387 115.226 154.247C115.398 154.105 115.59 154.015 115.802 153.977V153.943C115.524 153.871 115.302 153.715 115.138 153.474C114.973 153.232 114.891 152.956 114.893 152.648C114.891 152.352 114.966 152.088 115.118 151.855C115.269 151.622 115.478 151.438 115.743 151.304C116.01 151.17 116.314 151.102 116.655 151.102C116.992 151.102 117.293 151.17 117.558 151.304C117.823 151.438 118.032 151.622 118.183 151.855C118.337 152.088 118.414 152.352 118.416 152.648C118.414 152.956 118.33 153.232 118.163 153.474C117.999 153.715 117.78 153.871 117.507 153.943V153.977C117.717 154.015 117.907 154.105 118.075 154.247C118.244 154.387 118.378 154.562 118.479 154.773C118.579 154.981 118.63 155.208 118.632 155.455C118.63 155.769 118.545 156.049 118.376 156.295C118.21 156.54 117.978 156.732 117.68 156.872C117.385 157.01 117.043 157.08 116.655 157.08ZM116.655 156.455C116.918 156.455 117.145 156.412 117.337 156.327C117.528 156.241 117.676 156.121 117.78 155.966C117.884 155.811 117.937 155.629 117.939 155.42C117.937 155.201 117.88 155.007 117.768 154.838C117.657 154.67 117.504 154.537 117.311 154.44C117.12 154.344 116.901 154.295 116.655 154.295C116.407 154.295 116.185 154.344 115.99 154.44C115.797 154.537 115.644 154.67 115.533 154.838C115.423 155.007 115.369 155.201 115.371 155.42C115.369 155.629 115.419 155.811 115.521 155.966C115.625 156.121 115.774 156.241 115.967 156.327C116.16 156.412 116.39 156.455 116.655 156.455ZM116.655 153.693C116.863 153.693 117.048 153.652 117.209 153.568C117.372 153.485 117.499 153.368 117.592 153.219C117.685 153.069 117.732 152.894 117.734 152.693C117.732 152.496 117.686 152.325 117.595 152.179C117.504 152.031 117.378 151.918 117.217 151.838C117.056 151.757 116.869 151.716 116.655 151.716C116.437 151.716 116.247 151.757 116.084 151.838C115.921 151.918 115.795 152.031 115.706 152.179C115.617 152.325 115.573 152.496 115.575 152.693C115.573 152.894 115.618 153.069 115.709 153.219C115.802 153.368 115.929 153.485 116.092 153.568C116.255 153.652 116.443 153.693 116.655 153.693Z" fill="#001F3D"/>
</g>
<g clip-path="url(#clip3_5_48)">
<rect x="112.5" y="106.5" width="31" height="42" fill="#F5F5F5" stroke="#001F3D"/>
<path d="M128.201 124H126.616C126.522 123.544 126.358 123.143 126.124 122.798C125.894 122.453 125.613 122.163 125.28 121.929C124.952 121.69 124.588 121.511 124.187 121.392C123.787 121.273 123.369 121.213 122.934 121.213C122.142 121.213 121.424 121.413 120.78 121.814C120.141 122.214 119.632 122.805 119.252 123.585C118.877 124.364 118.69 125.321 118.69 126.455C118.69 127.588 118.877 128.545 119.252 129.325C119.632 130.104 120.141 130.695 120.78 131.095C121.424 131.496 122.142 131.696 122.934 131.696C123.369 131.696 123.787 131.636 124.187 131.517C124.588 131.398 124.952 131.221 125.28 130.987C125.613 130.748 125.894 130.456 126.124 130.111C126.358 129.761 126.522 129.361 126.616 128.909H128.201C128.082 129.578 127.865 130.177 127.549 130.705C127.234 131.234 126.842 131.683 126.373 132.054C125.904 132.42 125.378 132.7 124.794 132.891C124.215 133.083 123.595 133.179 122.934 133.179C121.818 133.179 120.825 132.906 119.956 132.361C119.086 131.815 118.402 131.04 117.904 130.034C117.405 129.028 117.156 127.835 117.156 126.455C117.156 125.074 117.405 123.881 117.904 122.875C118.402 121.869 119.086 121.094 119.956 120.548C120.825 120.003 121.818 119.73 122.934 119.73C123.595 119.73 124.215 119.826 124.794 120.018C125.378 120.21 125.904 120.491 126.373 120.862C126.842 121.228 127.234 121.675 127.549 122.204C127.865 122.728 128.082 123.327 128.201 124ZM134.547 133.205C133.661 133.205 132.883 132.994 132.214 132.572C131.549 132.15 131.029 131.56 130.654 130.801C130.284 130.043 130.098 129.156 130.098 128.142C130.098 127.119 130.284 126.227 130.654 125.464C131.029 124.701 131.549 124.109 132.214 123.687C132.883 123.265 133.661 123.054 134.547 123.054C135.433 123.054 136.209 123.265 136.874 123.687C137.543 124.109 138.063 124.701 138.433 125.464C138.808 126.227 138.996 127.119 138.996 128.142C138.996 129.156 138.808 130.043 138.433 130.801C138.063 131.56 137.543 132.15 136.874 132.572C136.209 132.994 135.433 133.205 134.547 133.205ZM134.547 131.849C135.22 131.849 135.774 131.677 136.209 131.332C136.644 130.987 136.965 130.533 137.174 129.97C137.383 129.408 137.487 128.798 137.487 128.142C137.487 127.486 137.383 126.874 137.174 126.308C136.965 125.741 136.644 125.283 136.209 124.933C135.774 124.584 135.22 124.409 134.547 124.409C133.874 124.409 133.32 124.584 132.885 124.933C132.45 125.283 132.129 125.741 131.92 126.308C131.711 126.874 131.607 127.486 131.607 128.142C131.607 128.798 131.711 129.408 131.92 129.97C132.129 130.533 132.45 130.987 132.885 131.332C133.32 131.677 133.874 131.849 134.547 131.849Z" fill="#001F3D"/>
<path d="M116.602 115V114.489L118.523 112.386C118.748 112.14 118.934 111.926 119.08 111.744C119.225 111.561 119.333 111.388 119.403 111.227C119.475 111.064 119.511 110.894 119.511 110.716C119.511 110.511 119.462 110.334 119.364 110.185C119.267 110.035 119.134 109.92 118.966 109.838C118.797 109.757 118.608 109.716 118.398 109.716C118.174 109.716 117.979 109.762 117.812 109.855C117.648 109.946 117.52 110.074 117.429 110.239C117.34 110.403 117.295 110.597 117.295 110.818H116.625C116.625 110.477 116.704 110.178 116.861 109.92C117.018 109.663 117.232 109.462 117.503 109.318C117.776 109.174 118.081 109.102 118.42 109.102C118.761 109.102 119.063 109.174 119.327 109.318C119.59 109.462 119.796 109.656 119.946 109.901C120.096 110.145 120.17 110.417 120.17 110.716C120.17 110.93 120.132 111.139 120.054 111.344C119.978 111.546 119.846 111.773 119.656 112.023C119.469 112.271 119.208 112.574 118.875 112.932L117.568 114.33V114.375H120.273V115H116.602ZM121.628 115L124.23 109.852V109.807H121.23V109.182H124.957V109.841L122.366 115H121.628Z" fill="#001F3D"/>
<path d="M119.42 141.08C119.087 141.08 118.787 141.013 118.52 140.881C118.253 140.748 118.039 140.566 117.878 140.335C117.717 140.104 117.629 139.841 117.614 139.545H118.295C118.322 139.809 118.441 140.027 118.653 140.199C118.867 140.369 119.123 140.455 119.42 140.455C119.659 140.455 119.871 140.399 120.057 140.287C120.244 140.175 120.391 140.022 120.497 139.827C120.605 139.63 120.659 139.407 120.659 139.159C120.659 138.905 120.603 138.679 120.491 138.48C120.382 138.279 120.23 138.121 120.037 138.006C119.844 137.89 119.623 137.831 119.375 137.83C119.197 137.828 119.014 137.855 118.827 137.912C118.639 137.967 118.485 138.038 118.364 138.125L117.705 138.045L118.057 135.182H121.08V135.807H118.648L118.443 137.523H118.477C118.597 137.428 118.746 137.349 118.926 137.287C119.106 137.224 119.294 137.193 119.489 137.193C119.845 137.193 120.162 137.278 120.44 137.449C120.721 137.617 120.94 137.848 121.099 138.142C121.26 138.436 121.341 138.771 121.341 139.148C121.341 139.519 121.258 139.85 121.091 140.142C120.926 140.432 120.699 140.661 120.409 140.83C120.119 140.996 119.79 141.08 119.42 141.08ZM124.333 141.08C123.943 141.08 123.598 141.01 123.299 140.872C123.002 140.732 122.77 140.54 122.603 140.295C122.436 140.049 122.354 139.769 122.356 139.455C122.354 139.208 122.402 138.981 122.501 138.773C122.599 138.562 122.734 138.387 122.904 138.247C123.076 138.105 123.269 138.015 123.481 137.977V137.943C123.202 137.871 122.981 137.715 122.816 137.474C122.651 137.232 122.57 136.956 122.572 136.648C122.57 136.352 122.645 136.088 122.796 135.855C122.948 135.622 123.156 135.438 123.421 135.304C123.688 135.17 123.992 135.102 124.333 135.102C124.67 135.102 124.971 135.17 125.237 135.304C125.502 135.438 125.71 135.622 125.862 135.855C126.015 136.088 126.093 136.352 126.094 136.648C126.093 136.956 126.008 137.232 125.842 137.474C125.677 137.715 125.458 137.871 125.185 137.943V137.977C125.396 138.015 125.585 138.105 125.754 138.247C125.922 138.387 126.057 138.562 126.157 138.773C126.257 138.981 126.308 139.208 126.31 139.455C126.308 139.769 126.223 140.049 126.055 140.295C125.888 140.54 125.656 140.732 125.359 140.872C125.063 141.01 124.721 141.08 124.333 141.08ZM124.333 140.455C124.596 140.455 124.824 140.412 125.015 140.327C125.206 140.241 125.354 140.121 125.458 139.966C125.562 139.811 125.615 139.629 125.617 139.42C125.615 139.201 125.558 139.007 125.447 138.838C125.335 138.67 125.183 138.537 124.989 138.44C124.798 138.344 124.579 138.295 124.333 138.295C124.085 138.295 123.863 138.344 123.668 138.44C123.475 138.537 123.323 138.67 123.211 138.838C123.101 139.007 123.047 139.201 123.049 139.42C123.047 139.629 123.097 139.811 123.2 139.966C123.304 140.121 123.452 140.241 123.646 140.327C123.839 140.412 124.068 140.455 124.333 140.455ZM124.333 137.693C124.541 137.693 124.726 137.652 124.887 137.568C125.05 137.485 125.178 137.368 125.271 137.219C125.363 137.069 125.411 136.894 125.413 136.693C125.411 136.496 125.364 136.325 125.273 136.179C125.183 136.031 125.057 135.918 124.896 135.838C124.735 135.757 124.547 135.716 124.333 135.716C124.115 135.716 123.925 135.757 123.762 135.838C123.599 135.918 123.473 136.031 123.384 136.179C123.295 136.325 123.252 136.496 123.254 136.693C123.252 136.894 123.296 137.069 123.387 137.219C123.48 137.368 123.608 137.485 123.771 137.568C123.933 137.652 124.121 137.693 124.333 137.693ZM127.719 141.045C127.579 141.045 127.459 140.995 127.359 140.895C127.258 140.795 127.208 140.674 127.208 140.534C127.208 140.394 127.258 140.274 127.359 140.173C127.459 140.073 127.579 140.023 127.719 140.023C127.86 140.023 127.98 140.073 128.08 140.173C128.181 140.274 128.231 140.394 128.231 140.534C128.231 140.627 128.207 140.712 128.16 140.79C128.114 140.867 128.053 140.93 127.975 140.977C127.899 141.023 127.814 141.045 127.719 141.045ZM131.22 135.102C131.459 135.104 131.697 135.15 131.936 135.239C132.175 135.328 132.393 135.475 132.589 135.682C132.786 135.886 132.945 136.166 133.064 136.52C133.183 136.874 133.243 137.318 133.243 137.852C133.243 138.369 133.194 138.829 133.095 139.23C132.999 139.63 132.858 139.967 132.675 140.241C132.493 140.516 132.271 140.724 132.01 140.866C131.75 141.009 131.457 141.08 131.129 141.08C130.804 141.08 130.513 141.015 130.257 140.886C130.003 140.756 129.795 140.575 129.632 140.344C129.471 140.111 129.368 139.841 129.322 139.534H130.016C130.078 139.801 130.202 140.022 130.388 140.196C130.575 140.368 130.822 140.455 131.129 140.455C131.578 140.455 131.932 140.259 132.192 139.866C132.453 139.474 132.584 138.92 132.584 138.205H132.538C132.432 138.364 132.306 138.501 132.161 138.616C132.015 138.732 131.853 138.821 131.675 138.884C131.497 138.946 131.307 138.977 131.107 138.977C130.773 138.977 130.467 138.895 130.189 138.73C129.912 138.563 129.691 138.335 129.524 138.045C129.359 137.754 129.277 137.42 129.277 137.045C129.277 136.689 129.357 136.364 129.516 136.068C129.677 135.771 129.902 135.534 130.192 135.358C130.483 135.182 130.826 135.097 131.22 135.102ZM131.22 135.727C130.982 135.727 130.767 135.787 130.575 135.906C130.386 136.024 130.235 136.183 130.124 136.384C130.014 136.582 129.959 136.803 129.959 137.045C129.959 137.288 130.012 137.509 130.118 137.707C130.226 137.904 130.373 138.062 130.558 138.179C130.746 138.295 130.959 138.352 131.197 138.352C131.377 138.352 131.545 138.317 131.7 138.247C131.856 138.175 131.991 138.078 132.107 137.955C132.224 137.83 132.316 137.688 132.382 137.531C132.448 137.372 132.482 137.206 132.482 137.034C132.482 136.807 132.427 136.594 132.317 136.395C132.209 136.196 132.059 136.035 131.868 135.912C131.679 135.789 131.463 135.727 131.22 135.727ZM136.326 141.08C135.951 141.08 135.617 141.015 135.323 140.886C135.031 140.758 134.799 140.579 134.627 140.349C134.457 140.118 134.364 139.85 134.349 139.545H135.065C135.08 139.733 135.144 139.895 135.258 140.031C135.371 140.166 135.52 140.27 135.704 140.344C135.888 140.418 136.091 140.455 136.315 140.455C136.565 140.455 136.786 140.411 136.979 140.324C137.173 140.237 137.324 140.116 137.434 139.96C137.544 139.805 137.599 139.625 137.599 139.42C137.599 139.206 137.546 139.018 137.44 138.855C137.334 138.69 137.178 138.562 136.974 138.469C136.769 138.376 136.519 138.33 136.224 138.33H135.758V137.705H136.224C136.455 137.705 136.657 137.663 136.832 137.58C137.008 137.496 137.145 137.379 137.244 137.227C137.344 137.076 137.394 136.898 137.394 136.693C137.394 136.496 137.351 136.325 137.263 136.179C137.176 136.033 137.053 135.92 136.894 135.838C136.737 135.757 136.551 135.716 136.337 135.716C136.137 135.716 135.947 135.753 135.769 135.827C135.593 135.899 135.449 136.004 135.337 136.142C135.226 136.278 135.165 136.443 135.156 136.636H134.474C134.485 136.331 134.577 136.064 134.749 135.835C134.922 135.604 135.147 135.424 135.425 135.295C135.706 135.167 136.013 135.102 136.349 135.102C136.709 135.102 137.017 135.175 137.275 135.321C137.532 135.465 137.73 135.655 137.869 135.892C138.007 136.129 138.076 136.384 138.076 136.659C138.076 136.987 137.99 137.266 137.817 137.497C137.647 137.728 137.415 137.888 137.121 137.977V138.023C137.489 138.083 137.776 138.24 137.982 138.491C138.189 138.741 138.292 139.051 138.292 139.42C138.292 139.737 138.206 140.021 138.033 140.273C137.863 140.523 137.63 140.72 137.335 140.864C137.039 141.008 136.703 141.08 136.326 141.08Z" fill="#001F3D"/>
</g>
<g clip-path="url(#clip4_5_48)">
<rect x="132.5" y="83.5" width="31" height="42" fill="#F5F5F5" stroke="#001F3D"/>
<path d="M151.054 96.9091V110H149.52L142.386 99.7216H142.258V110H140.673V96.9091H142.207L149.366 107.213H149.494V96.9091H151.054ZM154.021 110V100.182H155.53V110H154.021ZM154.788 98.5455C154.494 98.5455 154.241 98.4453 154.028 98.245C153.819 98.0447 153.714 97.804 153.714 97.5227C153.714 97.2415 153.819 97.0007 154.028 96.8004C154.241 96.6001 154.494 96.5 154.788 96.5C155.082 96.5 155.334 96.6001 155.543 96.8004C155.756 97.0007 155.862 97.2415 155.862 97.5227C155.862 97.804 155.756 98.0447 155.543 98.245C155.334 98.4453 155.082 98.5455 154.788 98.5455Z" fill="#001F3D"/>
<path d="M136.602 92V91.4886L138.523 89.3864C138.748 89.1402 138.934 88.9261 139.08 88.7443C139.225 88.5606 139.333 88.3883 139.403 88.2273C139.475 88.0644 139.511 87.8939 139.511 87.7159C139.511 87.5114 139.462 87.3343 139.364 87.1847C139.267 87.035 139.134 86.9195 138.966 86.8381C138.797 86.7566 138.608 86.7159 138.398 86.7159C138.174 86.7159 137.979 86.7623 137.812 86.8551C137.648 86.946 137.52 87.0739 137.429 87.2386C137.34 87.4034 137.295 87.5966 137.295 87.8182H136.625C136.625 87.4773 136.704 87.178 136.861 86.9205C137.018 86.6629 137.232 86.4621 137.503 86.3182C137.776 86.1742 138.081 86.1023 138.42 86.1023C138.761 86.1023 139.063 86.1742 139.327 86.3182C139.59 86.4621 139.796 86.6562 139.946 86.9006C140.096 87.1449 140.17 87.4167 140.17 87.7159C140.17 87.9299 140.132 88.1392 140.054 88.3438C139.978 88.5464 139.846 88.7727 139.656 89.0227C139.469 89.2708 139.208 89.5739 138.875 89.9318L137.568 91.3295V91.375H140.273V92H136.602ZM143.31 92.0795C142.92 92.0795 142.575 92.0104 142.276 91.8722C141.978 91.732 141.746 91.5398 141.58 91.2955C141.413 91.0492 141.33 90.7689 141.332 90.4545C141.33 90.2083 141.379 89.9811 141.477 89.7727C141.576 89.5625 141.71 89.3873 141.881 89.2472C142.053 89.1051 142.245 89.0152 142.457 88.9773V88.9432C142.179 88.8712 141.957 88.715 141.793 88.4744C141.628 88.232 141.546 87.9564 141.548 87.6477C141.546 87.3523 141.621 87.0881 141.773 86.8551C141.924 86.6222 142.133 86.4384 142.398 86.304C142.665 86.1695 142.969 86.1023 143.31 86.1023C143.647 86.1023 143.948 86.1695 144.213 86.304C144.478 86.4384 144.687 86.6222 144.838 86.8551C144.991 87.0881 145.069 87.3523 145.071 87.6477C145.069 87.9564 144.985 88.232 144.818 88.4744C144.653 88.715 144.435 88.8712 144.162 88.9432V88.9773C144.372 89.0152 144.562 89.1051 144.73 89.2472C144.899 89.3873 145.033 89.5625 145.134 89.7727C145.234 89.9811 145.285 90.2083 145.287 90.4545C145.285 90.7689 145.2 91.0492 145.031 91.2955C144.865 91.5398 144.633 91.732 144.335 91.8722C144.04 92.0104 143.698 92.0795 143.31 92.0795ZM143.31 91.4545C143.573 91.4545 143.8 91.4119 143.991 91.3267C144.183 91.2415 144.33 91.1212 144.435 90.9659C144.539 90.8106 144.592 90.6288 144.594 90.4205C144.592 90.2008 144.535 90.0066 144.423 89.8381C144.312 89.6695 144.159 89.5369 143.966 89.4403C143.775 89.3437 143.556 89.2955 143.31 89.2955C143.062 89.2955 142.84 89.3437 142.645 89.4403C142.452 89.5369 142.299 89.6695 142.188 89.8381C142.078 90.0066 142.024 90.2008 142.026 90.4205C142.024 90.6288 142.074 90.8106 142.176 90.9659C142.28 91.1212 142.429 91.2415 142.622 91.3267C142.815 91.4119 143.045 91.4545 143.31 91.4545ZM143.31 88.6932C143.518 88.6932 143.703 88.6515 143.864 88.5682C144.027 88.4848 144.154 88.3684 144.247 88.2188C144.34 88.0691 144.387 87.8939 144.389 87.6932C144.387 87.4962 144.341 87.3248 144.25 87.179C144.159 87.0312 144.033 86.9176 143.872 86.8381C143.711 86.7566 143.524 86.7159 143.31 86.7159C143.092 86.7159 142.902 86.7566 142.739 86.8381C142.576 86.9176 142.45 87.0312 142.361 87.179C142.272 87.3248 142.228 87.4962 142.23 87.6932C142.228 87.8939 142.273 88.0691 142.364 88.2188C142.456 88.3684 142.584 88.4848 142.747 88.5682C142.91 88.6515 143.098 88.6932 143.31 88.6932Z" fill="#001F3D"/>
<path d="M139.42 118.08C139.087 118.08 138.787 118.013 138.52 117.881C138.253 117.748 138.039 117.566 137.878 117.335C137.717 117.104 137.629 116.841 137.614 116.545H138.295C138.322 116.809 138.441 117.027 138.653 117.199C138.867 117.369 139.123 117.455 139.42 117.455C139.659 117.455 139.871 117.399 140.057 117.287C140.244 117.175 140.391 117.022 140.497 116.827C140.605 116.63 140.659 116.407 140.659 116.159C140.659 115.905 140.603 115.679 140.491 115.48C140.382 115.279 140.23 115.121 140.037 115.006C139.844 114.89 139.623 114.831 139.375 114.83C139.197 114.828 139.014 114.855 138.827 114.912C138.639 114.967 138.485 115.038 138.364 115.125L137.705 115.045L138.057 112.182H141.08V112.807H138.648L138.443 114.523H138.477C138.597 114.428 138.746 114.349 138.926 114.287C139.106 114.224 139.294 114.193 139.489 114.193C139.845 114.193 140.162 114.278 140.44 114.449C140.721 114.617 140.94 114.848 141.099 115.142C141.26 115.436 141.341 115.771 141.341 116.148C141.341 116.519 141.258 116.85 141.091 117.142C140.926 117.432 140.699 117.661 140.409 117.83C140.119 117.996 139.79 118.08 139.42 118.08ZM144.333 118.08C143.943 118.08 143.598 118.01 143.299 117.872C143.002 117.732 142.77 117.54 142.603 117.295C142.436 117.049 142.354 116.769 142.356 116.455C142.354 116.208 142.402 115.981 142.501 115.773C142.599 115.562 142.734 115.387 142.904 115.247C143.076 115.105 143.269 115.015 143.481 114.977V114.943C143.202 114.871 142.981 114.715 142.816 114.474C142.651 114.232 142.57 113.956 142.572 113.648C142.57 113.352 142.645 113.088 142.796 112.855C142.948 112.622 143.156 112.438 143.421 112.304C143.688 112.17 143.992 112.102 144.333 112.102C144.67 112.102 144.971 112.17 145.237 112.304C145.502 112.438 145.71 112.622 145.862 112.855C146.015 113.088 146.093 113.352 146.094 113.648C146.093 113.956 146.008 114.232 145.842 114.474C145.677 114.715 145.458 114.871 145.185 114.943V114.977C145.396 115.015 145.585 115.105 145.754 115.247C145.922 115.387 146.057 115.562 146.157 115.773C146.257 115.981 146.308 116.208 146.31 116.455C146.308 116.769 146.223 117.049 146.055 117.295C145.888 117.54 145.656 117.732 145.359 117.872C145.063 118.01 144.721 118.08 144.333 118.08ZM144.333 117.455C144.596 117.455 144.824 117.412 145.015 117.327C145.206 117.241 145.354 117.121 145.458 116.966C145.562 116.811 145.615 116.629 145.617 116.42C145.615 116.201 145.558 116.007 145.447 115.838C145.335 115.67 145.183 115.537 144.989 115.44C144.798 115.344 144.579 115.295 144.333 115.295C144.085 115.295 143.863 115.344 143.668 115.44C143.475 115.537 143.323 115.67 143.211 115.838C143.101 116.007 143.047 116.201 143.049 116.42C143.047 116.629 143.097 116.811 143.2 116.966C143.304 117.121 143.452 117.241 143.646 117.327C143.839 117.412 144.068 117.455 144.333 117.455ZM144.333 114.693C144.541 114.693 144.726 114.652 144.887 114.568C145.05 114.485 145.178 114.368 145.271 114.219C145.363 114.069 145.411 113.894 145.413 113.693C145.411 113.496 145.364 113.325 145.273 113.179C145.183 113.031 145.057 112.918 144.896 112.838C144.735 112.757 144.547 112.716 144.333 112.716C144.115 112.716 143.925 112.757 143.762 112.838C143.599 112.918 143.473 113.031 143.384 113.179C143.295 113.325 143.252 113.496 143.254 113.693C143.252 113.894 143.296 114.069 143.387 114.219C143.48 114.368 143.608 114.485 143.771 114.568C143.933 114.652 144.121 114.693 144.333 114.693ZM147.719 118.045C147.579 118.045 147.459 117.995 147.359 117.895C147.258 117.795 147.208 117.674 147.208 117.534C147.208 117.394 147.258 117.274 147.359 117.173C147.459 117.073 147.579 117.023 147.719 117.023C147.86 117.023 147.98 117.073 148.08 117.173C148.181 117.274 148.231 117.394 148.231 117.534C148.231 117.627 148.207 117.712 148.16 117.79C148.114 117.867 148.053 117.93 147.975 117.977C147.899 118.023 147.814 118.045 147.719 118.045ZM151.151 118.08C150.913 118.076 150.674 118.03 150.435 117.943C150.197 117.856 149.979 117.709 149.782 117.503C149.585 117.295 149.427 117.013 149.308 116.659C149.188 116.303 149.129 115.856 149.129 115.318C149.129 114.803 149.177 114.347 149.273 113.949C149.37 113.549 149.51 113.213 149.694 112.94C149.878 112.666 150.099 112.457 150.359 112.315C150.62 112.173 150.915 112.102 151.242 112.102C151.568 112.102 151.858 112.168 152.112 112.298C152.367 112.427 152.576 112.607 152.737 112.838C152.897 113.069 153.002 113.335 153.049 113.636H152.356C152.291 113.375 152.166 113.158 151.981 112.986C151.795 112.813 151.549 112.727 151.242 112.727C150.791 112.727 150.436 112.923 150.177 113.315C149.919 113.707 149.79 114.258 149.788 114.966H149.833C149.939 114.805 150.065 114.668 150.211 114.554C150.359 114.438 150.522 114.349 150.7 114.287C150.878 114.224 151.066 114.193 151.265 114.193C151.598 114.193 151.903 114.277 152.18 114.443C152.456 114.608 152.678 114.836 152.844 115.128C153.011 115.418 153.094 115.75 153.094 116.125C153.094 116.485 153.014 116.814 152.853 117.114C152.692 117.411 152.466 117.648 152.174 117.824C151.884 117.998 151.543 118.083 151.151 118.08ZM151.151 117.455C151.39 117.455 151.604 117.395 151.793 117.276C151.985 117.156 152.135 116.996 152.245 116.795C152.357 116.595 152.413 116.371 152.413 116.125C152.413 115.884 152.359 115.666 152.251 115.469C152.145 115.27 151.998 115.112 151.81 114.994C151.625 114.877 151.413 114.818 151.174 114.818C150.994 114.818 150.826 114.854 150.671 114.926C150.516 114.996 150.379 115.093 150.262 115.216C150.147 115.339 150.056 115.48 149.989 115.639C149.923 115.796 149.89 115.962 149.89 116.136C149.89 116.367 149.944 116.583 150.052 116.784C150.162 116.985 150.311 117.147 150.501 117.27C150.692 117.393 150.909 117.455 151.151 117.455ZM156.064 112.102C156.303 112.104 156.541 112.15 156.78 112.239C157.018 112.328 157.236 112.475 157.433 112.682C157.63 112.886 157.788 113.166 157.908 113.52C158.027 113.874 158.087 114.318 158.087 114.852C158.087 115.369 158.037 115.829 157.939 116.23C157.842 116.63 157.702 116.967 157.518 117.241C157.337 117.516 157.115 117.724 156.854 117.866C156.594 118.009 156.301 118.08 155.973 118.08C155.647 118.08 155.357 118.015 155.101 117.886C154.847 117.756 154.639 117.575 154.476 117.344C154.315 117.111 154.212 116.841 154.166 116.534H154.859C154.922 116.801 155.046 117.022 155.232 117.196C155.419 117.368 155.666 117.455 155.973 117.455C156.422 117.455 156.776 117.259 157.036 116.866C157.297 116.474 157.428 115.92 157.428 115.205H157.382C157.276 115.364 157.15 115.501 157.004 115.616C156.858 115.732 156.696 115.821 156.518 115.884C156.34 115.946 156.151 115.977 155.95 115.977C155.617 115.977 155.311 115.895 155.033 115.73C154.756 115.563 154.535 115.335 154.368 115.045C154.203 114.754 154.121 114.42 154.121 114.045C154.121 113.689 154.2 113.364 154.359 113.068C154.52 112.771 154.746 112.534 155.036 112.358C155.327 112.182 155.67 112.097 156.064 112.102ZM156.064 112.727C155.825 112.727 155.61 112.787 155.419 112.906C155.23 113.024 155.079 113.183 154.967 113.384C154.857 113.582 154.803 113.803 154.803 114.045C154.803 114.288 154.856 114.509 154.962 114.707C155.07 114.904 155.216 115.062 155.402 115.179C155.589 115.295 155.803 115.352 156.041 115.352C156.221 115.352 156.389 115.317 156.544 115.247C156.699 115.175 156.835 115.078 156.95 114.955C157.068 114.83 157.16 114.688 157.226 114.531C157.292 114.372 157.325 114.206 157.325 114.034C157.325 113.807 157.27 113.594 157.161 113.395C157.053 113.196 156.903 113.035 156.712 112.912C156.522 112.789 156.306 112.727 156.064 112.727Z" fill="#001F3D"/>
</g>
<g clip-path="url(#clip5_5_48)">
<rect x="152.5" y="64.5" width="31" height="42" fill="#F5F5F5" stroke="#001F3D"/>
<rect x="152.5" y="64.5" width="31" height="42" fill="#F5F5F5" stroke="#001F3D"/>
<path d="M166.842 81H165.257C165.163 80.544 164.999 80.1435 164.765 79.7983C164.534 79.4531 164.253 79.1634 163.921 78.929C163.593 78.6903 163.228 78.5114 162.828 78.392C162.427 78.2727 162.01 78.2131 161.575 78.2131C160.782 78.2131 160.064 78.4134 159.421 78.8139C158.782 79.2145 158.272 79.8047 157.893 80.5845C157.518 81.3643 157.331 82.321 157.331 83.4545C157.331 84.5881 157.518 85.5447 157.893 86.3246C158.272 87.1044 158.782 87.6946 159.421 88.0952C160.064 88.4957 160.782 88.696 161.575 88.696C162.01 88.696 162.427 88.6364 162.828 88.517C163.228 88.3977 163.593 88.2209 163.921 87.9865C164.253 87.7479 164.534 87.456 164.765 87.1108C164.999 86.7614 165.163 86.3608 165.257 85.9091H166.842C166.723 86.5781 166.505 87.1768 166.19 87.7053C165.875 88.2337 165.483 88.6832 165.014 89.054C164.545 89.4205 164.019 89.6996 163.435 89.8913C162.855 90.0831 162.235 90.179 161.575 90.179C160.458 90.179 159.466 89.9062 158.596 89.3608C157.727 88.8153 157.043 88.0398 156.544 87.0341C156.046 86.0284 155.797 84.8352 155.797 83.4545C155.797 82.0739 156.046 80.8807 156.544 79.875C157.043 78.8693 157.727 78.0938 158.596 77.5483C159.466 77.0028 160.458 76.7301 161.575 76.7301C162.235 76.7301 162.855 76.826 163.435 77.0178C164.019 77.2095 164.545 77.4908 165.014 77.8615C165.483 78.228 165.875 78.6754 166.19 79.2038C166.505 79.728 166.723 80.3267 166.842 81ZM175.387 85.9858V80.1818H176.895V90H175.387V88.3381H175.284C175.054 88.8366 174.696 89.2607 174.21 89.6101C173.725 89.9553 173.111 90.1278 172.369 90.1278C171.756 90.1278 171.21 89.9936 170.733 89.7251C170.256 89.4524 169.881 89.0433 169.608 88.4979C169.335 87.9482 169.199 87.2557 169.199 86.4205V80.1818H170.708V86.3182C170.708 87.0341 170.908 87.6051 171.308 88.0312C171.713 88.4574 172.229 88.6705 172.855 88.6705C173.23 88.6705 173.612 88.5746 173.999 88.3828C174.392 88.1911 174.72 87.897 174.984 87.5007C175.252 87.1044 175.387 86.5994 175.387 85.9858Z" fill="#001F3D"/>
<path d="M156.259 73V72.4886L158.18 70.3864C158.405 70.1402 158.591 69.9261 158.737 69.7443C158.883 69.5606 158.99 69.3883 159.061 69.2273C159.133 69.0644 159.169 68.8939 159.169 68.7159C159.169 68.5114 159.119 68.3343 159.021 68.1847C158.924 68.035 158.792 67.9195 158.623 67.8381C158.454 67.7566 158.265 67.7159 158.055 67.7159C157.831 67.7159 157.636 67.7623 157.47 67.8551C157.305 67.946 157.177 68.0739 157.086 68.2386C156.997 68.4034 156.953 68.5966 156.953 68.8182H156.282C156.282 68.4773 156.361 68.178 156.518 67.9205C156.675 67.6629 156.889 67.4621 157.16 67.3182C157.433 67.1742 157.739 67.1023 158.078 67.1023C158.419 67.1023 158.721 67.1742 158.984 67.3182C159.247 67.4621 159.454 67.6562 159.603 67.9006C159.753 68.1449 159.828 68.4167 159.828 68.7159C159.828 68.9299 159.789 69.1392 159.711 69.3438C159.635 69.5464 159.503 69.7727 159.313 70.0227C159.126 70.2708 158.865 70.5739 158.532 70.9318L157.225 72.3295V72.375H159.93V73H156.259ZM162.955 67.1023C163.194 67.1042 163.433 67.1496 163.671 67.2386C163.91 67.3277 164.128 67.4754 164.325 67.6818C164.522 67.8864 164.68 68.1657 164.799 68.5199C164.919 68.8741 164.978 69.3182 164.978 69.8523C164.978 70.3693 164.929 70.8286 164.83 71.2301C164.734 71.6297 164.594 71.9669 164.41 72.2415C164.228 72.5161 164.007 72.7244 163.745 72.8665C163.486 73.0085 163.192 73.0795 162.865 73.0795C162.539 73.0795 162.248 73.0152 161.992 72.8864C161.739 72.7557 161.53 72.5748 161.367 72.3438C161.206 72.1108 161.103 71.8409 161.058 71.5341H161.751C161.813 71.8011 161.937 72.0218 162.123 72.196C162.311 72.3684 162.558 72.4545 162.865 72.4545C163.313 72.4545 163.668 72.2585 163.927 71.8665C164.188 71.4744 164.319 70.9205 164.319 70.2045H164.274C164.168 70.3636 164.042 70.5009 163.896 70.6165C163.75 70.732 163.588 70.821 163.41 70.8835C163.232 70.946 163.043 70.9773 162.842 70.9773C162.508 70.9773 162.203 70.8949 161.924 70.7301C161.648 70.5634 161.426 70.3352 161.259 70.0455C161.095 69.7538 161.012 69.4205 161.012 69.0455C161.012 68.6894 161.092 68.3636 161.251 68.0682C161.412 67.7708 161.637 67.5341 161.927 67.358C162.219 67.1818 162.562 67.0966 162.955 67.1023ZM162.955 67.7273C162.717 67.7273 162.502 67.7869 162.311 67.9062C162.121 68.0237 161.971 68.1828 161.859 68.3835C161.749 68.5824 161.694 68.803 161.694 69.0455C161.694 69.2879 161.747 69.5085 161.853 69.7074C161.961 69.9044 162.108 70.0616 162.294 70.179C162.481 70.2945 162.694 70.3523 162.933 70.3523C163.113 70.3523 163.28 70.3172 163.436 70.2472C163.591 70.1752 163.726 70.0777 163.842 69.9545C163.959 69.8295 164.051 69.6884 164.117 69.5312C164.184 69.3722 164.217 69.2064 164.217 69.0341C164.217 68.8068 164.162 68.5937 164.052 68.3949C163.944 68.196 163.794 68.035 163.603 67.9119C163.414 67.7888 163.198 67.7273 162.955 67.7273Z" fill="#001F3D"/>
<path d="M160.02 99.0795C159.781 99.0758 159.543 99.0303 159.304 98.9432C159.065 98.8561 158.847 98.7093 158.65 98.5028C158.454 98.2945 158.295 98.0133 158.176 97.6591C158.057 97.303 157.997 96.8561 157.997 96.3182C157.997 95.803 158.045 95.3466 158.142 94.9489C158.239 94.5492 158.379 94.2131 158.562 93.9403C158.746 93.6657 158.968 93.4574 159.227 93.3153C159.489 93.1733 159.783 93.1023 160.111 93.1023C160.436 93.1023 160.726 93.1676 160.98 93.2983C161.236 93.4271 161.444 93.607 161.605 93.8381C161.766 94.0691 161.87 94.3352 161.918 94.6364H161.224C161.16 94.375 161.035 94.1581 160.849 93.9858C160.664 93.8134 160.418 93.7273 160.111 93.7273C159.66 93.7273 159.305 93.9233 159.045 94.3153C158.788 94.7074 158.658 95.2576 158.656 95.9659H158.702C158.808 95.8049 158.934 95.6676 159.079 95.554C159.227 95.4384 159.39 95.3494 159.568 95.2869C159.746 95.2244 159.935 95.1932 160.133 95.1932C160.467 95.1932 160.772 95.2765 161.048 95.4432C161.325 95.608 161.546 95.8362 161.713 96.1278C161.88 96.4176 161.963 96.75 161.963 97.125C161.963 97.4848 161.882 97.8144 161.722 98.1136C161.561 98.411 161.334 98.6477 161.043 98.8239C160.753 98.9981 160.412 99.0833 160.02 99.0795ZM160.02 98.4545C160.258 98.4545 160.472 98.3949 160.662 98.2756C160.853 98.1562 161.004 97.9962 161.114 97.7955C161.225 97.5947 161.281 97.3712 161.281 97.125C161.281 96.8845 161.227 96.6657 161.119 96.4688C161.013 96.2699 160.866 96.1117 160.679 95.9943C160.493 95.8769 160.281 95.8182 160.043 95.8182C159.863 95.8182 159.695 95.8542 159.54 95.9261C159.384 95.9962 159.248 96.0928 159.131 96.2159C159.015 96.339 158.924 96.4801 158.858 96.6392C158.792 96.7964 158.758 96.9621 158.758 97.1364C158.758 97.3674 158.812 97.5833 158.92 97.7841C159.03 97.9848 159.18 98.1468 159.369 98.2699C159.561 98.393 159.777 98.4545 160.02 98.4545ZM165.046 99.0795C164.671 99.0795 164.337 99.0152 164.043 98.8864C163.752 98.7576 163.52 98.5786 163.347 98.3494C163.177 98.1184 163.084 97.8504 163.069 97.5455H163.785C163.8 97.733 163.864 97.8949 163.978 98.0312C164.092 98.1657 164.24 98.2699 164.424 98.3438C164.608 98.4176 164.811 98.4545 165.035 98.4545C165.285 98.4545 165.506 98.411 165.699 98.3239C165.893 98.2367 166.044 98.1155 166.154 97.9602C166.264 97.8049 166.319 97.625 166.319 97.4205C166.319 97.2064 166.266 97.018 166.16 96.8551C166.054 96.6903 165.898 96.5616 165.694 96.4688C165.489 96.3759 165.239 96.3295 164.944 96.3295H164.478V95.7045H164.944C165.175 95.7045 165.378 95.6629 165.552 95.5795C165.728 95.4962 165.865 95.3788 165.964 95.2273C166.064 95.0758 166.114 94.8977 166.114 94.6932C166.114 94.4962 166.071 94.3248 165.984 94.179C165.896 94.0331 165.773 93.9195 165.614 93.8381C165.457 93.7566 165.271 93.7159 165.057 93.7159C164.857 93.7159 164.667 93.7528 164.489 93.8267C164.313 93.8987 164.169 94.0038 164.057 94.142C163.946 94.2784 163.885 94.4432 163.876 94.6364H163.194C163.205 94.3314 163.297 94.0644 163.469 93.8352C163.642 93.6042 163.867 93.4242 164.146 93.2955C164.426 93.1667 164.734 93.1023 165.069 93.1023C165.429 93.1023 165.737 93.1752 165.995 93.321C166.253 93.465 166.45 93.6553 166.589 93.892C166.727 94.1288 166.796 94.3845 166.796 94.6591C166.796 94.9867 166.71 95.2661 166.538 95.4972C166.367 95.7282 166.135 95.8883 165.842 95.9773V96.0227C166.209 96.0833 166.496 96.2396 166.702 96.4915C166.909 96.7415 167.012 97.0511 167.012 97.4205C167.012 97.7367 166.926 98.0208 166.753 98.2727C166.583 98.5227 166.35 98.7197 166.055 98.8636C165.759 99.0076 165.423 99.0795 165.046 99.0795ZM168.494 99.0455C168.354 99.0455 168.234 98.9953 168.133 98.8949C168.033 98.7945 167.983 98.6742 167.983 98.5341C167.983 98.3939 168.033 98.2737 168.133 98.1733C168.234 98.0729 168.354 98.0227 168.494 98.0227C168.634 98.0227 168.755 98.0729 168.855 98.1733C168.955 98.2737 169.006 98.3939 169.006 98.5341C169.006 98.6269 168.982 98.7121 168.935 98.7898C168.889 98.8674 168.828 98.9299 168.75 98.9773C168.674 99.0227 168.589 99.0455 168.494 99.0455ZM171.898 99.0795C171.565 99.0795 171.265 99.0133 170.998 98.8807C170.731 98.7481 170.517 98.5663 170.356 98.3352C170.195 98.1042 170.107 97.8409 170.092 97.5455H170.773C170.8 97.8087 170.919 98.0265 171.131 98.1989C171.345 98.3693 171.601 98.4545 171.898 98.4545C172.137 98.4545 172.349 98.3987 172.535 98.2869C172.722 98.1752 172.869 98.0218 172.975 97.8267C173.083 97.6297 173.137 97.4072 173.137 97.1591C173.137 96.9053 173.081 96.679 172.969 96.4801C172.86 96.2794 172.708 96.1212 172.515 96.0057C172.322 95.8902 172.101 95.8314 171.853 95.8295C171.675 95.8277 171.492 95.8551 171.305 95.9119C171.117 95.9669 170.963 96.0379 170.842 96.125L170.182 96.0455L170.535 93.1818H173.557V93.8068H171.126L170.921 95.5227H170.955C171.074 95.428 171.224 95.3494 171.404 95.2869C171.584 95.2244 171.771 95.1932 171.967 95.1932C172.323 95.1932 172.64 95.2784 172.918 95.4489C173.199 95.6174 173.418 95.8485 173.577 96.142C173.738 96.4356 173.819 96.7708 173.819 97.1477C173.819 97.5189 173.735 97.8504 173.569 98.142C173.404 98.4318 173.177 98.661 172.887 98.8295C172.597 98.9962 172.268 99.0795 171.898 99.0795ZM176.766 99.0795C176.432 99.0795 176.132 99.0133 175.865 98.8807C175.598 98.7481 175.384 98.5663 175.223 98.3352C175.062 98.1042 174.974 97.8409 174.959 97.5455H175.641C175.667 97.8087 175.786 98.0265 175.999 98.1989C176.213 98.3693 176.468 98.4545 176.766 98.4545C177.004 98.4545 177.216 98.3987 177.402 98.2869C177.589 98.1752 177.736 98.0218 177.842 97.8267C177.95 97.6297 178.004 97.4072 178.004 97.1591C178.004 96.9053 177.948 96.679 177.837 96.4801C177.727 96.2794 177.575 96.1212 177.382 96.0057C177.189 95.8902 176.968 95.8314 176.72 95.8295C176.542 95.8277 176.359 95.8551 176.172 95.9119C175.984 95.9669 175.83 96.0379 175.709 96.125L175.05 96.0455L175.402 93.1818H178.425V93.8068H175.993L175.788 95.5227H175.822C175.942 95.428 176.091 95.3494 176.271 95.2869C176.451 95.2244 176.639 95.1932 176.834 95.1932C177.19 95.1932 177.507 95.2784 177.785 95.4489C178.066 95.6174 178.285 95.8485 178.445 96.142C178.606 96.4356 178.686 96.7708 178.686 97.1477C178.686 97.5189 178.603 97.8504 178.436 98.142C178.271 98.4318 178.044 98.661 177.754 98.8295C177.464 98.9962 177.135 99.0795 176.766 99.0795Z" fill="#001F3D"/>
</g>
<defs>
<clipPath id="clip0_5_48">
<rect width="129" height="173" fill="white" transform="translate(27)"/>
</clipPath>
<clipPath id="clip1_5_48">
<rect width="32" height="43" fill="white" transform="translate(70 143)"/>
</clipPath>
<clipPath id="clip2_5_48">
<rect width="32" height="43" fill="white" transform="translate(92 122)"/>
</clipPath>
<clipPath id="clip3_5_48">
<rect width="32" height="43" fill="white" transform="translate(112 106)"/>
</clipPath>
<clipPath id="clip4_5_48">
<rect width="32" height="43" fill="white" transform="translate(132 83)"/>
</clipPath>
<clipPath id="clip5_5_48">
<rect width="32" height="43" fill="white" transform="translate(152 64)"/>
</clipPath>
</defs>
</svg>
