<svg width="182" height="190" viewBox="0 0 182 190" fill="none" xmlns="http://www.w3.org/2000/svg">
<circle cx="91" cy="93" r="88" fill="#F5F5F5"/>
<path d="M32.1976 48.2995C31.8107 47.9053 31.1776 47.8995 30.7835 48.2864L24.3608 54.5911C23.9667 54.978 23.9608 55.6111 24.3477 56.0053C24.7346 56.3994 25.3678 56.4052 25.7619 56.0184L31.4709 50.4141L37.0751 56.1231C37.462 56.5173 38.0951 56.5231 38.4893 56.1362C38.8834 55.7493 38.8893 55.1162 38.5024 54.7221L32.1976 48.2995ZM31.6666 137.255L32.4839 49.0092L30.484 48.9907L29.6667 137.237L31.6666 137.255Z" fill="#001F3D"/>
<path d="M165.707 136.707C166.098 136.317 166.098 135.683 165.707 135.293L159.343 128.929C158.953 128.538 158.319 128.538 157.929 128.929C157.538 129.319 157.538 129.953 157.929 130.343L163.586 136L157.929 141.657C157.538 142.047 157.538 142.681 157.929 143.071C158.319 143.462 158.953 143.462 159.343 143.071L165.707 136.707ZM31 137H165V135H31V137Z" fill="#001F3D"/>
<path d="M42 116C98.885 109.985 121.581 97.8146 140 55" stroke="#001F3D" stroke-width="2"/>
</svg>
